<?xml version="1.0" encoding="UTF-8" standalone="no"?>
<!DOCTYPE svg PUBLIC "-//W3C//DTD SVG 1.1//EN"
 "http://www.w3.org/Graphics/SVG/1.1/DTD/svg11.dtd">
<!-- Generated by graphviz version 2.40.1 (20161225.0304)
 -->
<!-- Title: dependency_graph Pages: 1 -->
<svg width="703pt" height="764pt"
 viewBox="0.00 0.00 702.59 764.00" xmlns="http://www.w3.org/2000/svg" xmlns:xlink="http://www.w3.org/1999/xlink">
<g id="graph0" class="graph" transform="scale(1 1) rotate(0) translate(4 760)">
<title>dependency_graph</title>
<polygon fill="#ffffff" stroke="transparent" points="-4,4 -4,-760 698.594,-760 698.594,4 -4,4"/>
<!-- group -->
<g id="node1" class="node">
<title>group</title>
<ellipse fill="none" stroke="#000000" cx="390" cy="-162" rx="38.1938" ry="18"/>
<text text-anchor="middle" x="390" y="-158.3" font-family="Times,serif" font-size="14.00" fill="#000000">group</text>
</g>
<!-- symbolic -->
<g id="node2" class="node">
<title>symbolic</title>
<ellipse fill="none" stroke="#000000" cx="118" cy="-90" rx="51.9908" ry="18"/>
<text text-anchor="middle" x="118" y="-86.3" font-family="Times,serif" font-size="14.00" fill="#000000">symbolic</text>
</g>
<!-- group&#45;&gt;symbolic -->
<g id="edge1" class="edge">
<title>group&#45;&gt;symbolic</title>
<path fill="none" stroke="#000000" d="M356.3747,-153.0992C309.5418,-140.7023 224.2654,-118.1291 169.4207,-103.6114"/>
<polygon fill="#000000" stroke="#000000" points="170.113,-100.1741 159.5503,-100.9986 168.3217,-106.9411 170.113,-100.1741"/>
</g>
<!-- eval -->
<g id="node3" class="node">
<title>eval</title>
<ellipse fill="none" stroke="#000000" cx="332" cy="-90" rx="29.795" ry="18"/>
<text text-anchor="middle" x="332" y="-86.3" font-family="Times,serif" font-size="14.00" fill="#000000">eval</text>
</g>
<!-- group&#45;&gt;eval -->
<g id="edge2" class="edge">
<title>group&#45;&gt;eval</title>
<path fill="none" stroke="#000000" d="M376.2548,-144.937C368.9269,-135.8403 359.7824,-124.4886 351.7112,-114.4691"/>
<polygon fill="#000000" stroke="#000000" points="354.2463,-112.0368 345.2473,-106.4449 348.795,-116.4281 354.2463,-112.0368"/>
</g>
<!-- scalar -->
<g id="node4" class="node">
<title>scalar</title>
<ellipse fill="none" stroke="#000000" cx="274" cy="-18" rx="38.9931" ry="18"/>
<text text-anchor="middle" x="274" y="-14.3" font-family="Times,serif" font-size="14.00" fill="#000000">scalar</text>
</g>
<!-- group&#45;&gt;scalar -->
<g id="edge3" class="edge">
<title>group&#45;&gt;scalar</title>
<path fill="none" stroke="#000000" d="M390.4249,-143.6504C389.9702,-124.0857 386.5445,-93.0778 371,-72 357.4332,-53.6039 335.6194,-40.6632 316.111,-32.0714"/>
<polygon fill="#000000" stroke="#000000" points="317.3437,-28.7937 306.7656,-28.1981 314.6635,-35.2603 317.3437,-28.7937"/>
</g>
<!-- symbolic&#45;&gt;scalar -->
<g id="edge8" class="edge">
<title>symbolic&#45;&gt;scalar</title>
<path fill="none" stroke="#000000" d="M149.5689,-75.4297C174.8634,-63.7554 210.4002,-47.3538 237.0239,-35.0659"/>
<polygon fill="#000000" stroke="#000000" points="238.7809,-38.1098 246.3938,-30.7413 235.8475,-31.7541 238.7809,-38.1098"/>
</g>
<!-- abs -->
<g id="node9" class="node">
<title>abs</title>
<ellipse fill="none" stroke="#000000" cx="46" cy="-18" rx="27" ry="18"/>
<text text-anchor="middle" x="46" y="-14.3" font-family="Times,serif" font-size="14.00" fill="#000000">abs</text>
</g>
<!-- symbolic&#45;&gt;abs -->
<g id="edge7" class="edge">
<title>symbolic&#45;&gt;abs</title>
<path fill="none" stroke="#000000" d="M100.937,-72.937C91.1659,-63.1659 78.7928,-50.7928 68.2639,-40.2639"/>
<polygon fill="#000000" stroke="#000000" points="70.5327,-37.583 60.9868,-32.9868 65.583,-42.5327 70.5327,-37.583"/>
</g>
<!-- unit_test -->
<g id="node11" class="node">
<title>unit_test</title>
<ellipse fill="none" stroke="#000000" cx="158" cy="-18" rx="51.9908" ry="18"/>
<text text-anchor="middle" x="158" y="-14.3" font-family="Times,serif" font-size="14.00" fill="#000000">unit_test</text>
</g>
<!-- symbolic&#45;&gt;unit_test -->
<g id="edge16" class="edge">
<title>symbolic&#45;&gt;unit_test</title>
<path fill="none" stroke="#000000" d="M127.8876,-72.2022C132.5031,-63.8944 138.0936,-53.8316 143.1985,-44.6427"/>
<polygon fill="#000000" stroke="#000000" points="146.2905,-46.2839 148.0875,-35.8425 140.1714,-42.8844 146.2905,-46.2839"/>
</g>
<!-- composition -->
<g id="node5" class="node">
<title>composition</title>
<ellipse fill="none" stroke="#000000" cx="627" cy="-594" rx="67.6881" ry="18"/>
<text text-anchor="middle" x="627" y="-590.3" font-family="Times,serif" font-size="14.00" fill="#000000">composition</text>
</g>
<!-- composition&#45;&gt;group -->
<g id="edge4" class="edge">
<title>composition&#45;&gt;group</title>
<path fill="none" stroke="#000000" d="M627.6216,-575.8172C628.5003,-548.504 630,-495.2598 630,-450 630,-450 630,-450 630,-306 630,-216.8464 506.72,-181.5185 436.8709,-168.6573"/>
<polygon fill="#000000" stroke="#000000" points="437.4288,-165.2017 426.974,-166.919 436.2178,-172.0962 437.4288,-165.2017"/>
</g>
<!-- vector -->
<g id="node6" class="node">
<title>vector</title>
<ellipse fill="none" stroke="#000000" cx="342" cy="-378" rx="40.0939" ry="18"/>
<text text-anchor="middle" x="342" y="-374.3" font-family="Times,serif" font-size="14.00" fill="#000000">vector</text>
</g>
<!-- multiplication -->
<g id="node7" class="node">
<title>multiplication</title>
<ellipse fill="none" stroke="#000000" cx="489" cy="-306" rx="75.2868" ry="18"/>
<text text-anchor="middle" x="489" y="-302.3" font-family="Times,serif" font-size="14.00" fill="#000000">multiplication</text>
</g>
<!-- vector&#45;&gt;multiplication -->
<g id="edge5" class="edge">
<title>vector&#45;&gt;multiplication</title>
<path fill="none" stroke="#000000" d="M369.3051,-364.6261C391.0242,-353.9882 421.7935,-338.9175 446.6964,-326.7201"/>
<polygon fill="#000000" stroke="#000000" points="448.4812,-329.7433 455.9223,-322.2013 445.4021,-323.4568 448.4812,-329.7433"/>
</g>
<!-- addition -->
<g id="node8" class="node">
<title>addition</title>
<ellipse fill="none" stroke="#000000" cx="313" cy="-234" rx="48.9926" ry="18"/>
<text text-anchor="middle" x="313" y="-230.3" font-family="Times,serif" font-size="14.00" fill="#000000">addition</text>
</g>
<!-- vector&#45;&gt;addition -->
<g id="edge6" class="edge">
<title>vector&#45;&gt;addition</title>
<path fill="none" stroke="#000000" d="M338.3858,-360.0535C333.4364,-335.4774 324.4995,-291.1008 318.6585,-262.0974"/>
<polygon fill="#000000" stroke="#000000" points="322.0652,-261.2849 316.6598,-252.1727 315.203,-262.6669 322.0652,-261.2849"/>
</g>
<!-- multiplication&#45;&gt;group -->
<g id="edge34" class="edge">
<title>multiplication&#45;&gt;group</title>
<path fill="none" stroke="#000000" d="M476.6618,-288.0535C459.2814,-262.7729 427.4965,-216.5404 407.6289,-187.6421"/>
<polygon fill="#000000" stroke="#000000" points="410.4243,-185.5301 401.8748,-179.2725 404.656,-189.4958 410.4243,-185.5301"/>
</g>
<!-- multiplication&#45;&gt;addition -->
<g id="edge35" class="edge">
<title>multiplication&#45;&gt;addition</title>
<path fill="none" stroke="#000000" d="M450.8106,-290.3771C422.6528,-278.858 384.3498,-263.1886 355.2713,-251.2928"/>
<polygon fill="#000000" stroke="#000000" points="356.3722,-247.9617 345.7915,-247.4147 353.7217,-254.4405 356.3722,-247.9617"/>
</g>
<!-- addition&#45;&gt;group -->
<g id="edge17" class="edge">
<title>addition&#45;&gt;group</title>
<path fill="none" stroke="#000000" d="M331.2479,-216.937C341.4377,-207.4089 354.2734,-195.4067 365.3462,-185.0529"/>
<polygon fill="#000000" stroke="#000000" points="367.7624,-187.5853 372.6762,-178.1989 362.9815,-182.4723 367.7624,-187.5853"/>
</g>
<!-- addition&#45;&gt;scalar -->
<g id="edge18" class="edge">
<title>addition&#45;&gt;scalar</title>
<path fill="none" stroke="#000000" d="M309.742,-215.9555C302.9457,-178.3144 287.2143,-91.1867 279.078,-46.1246"/>
<polygon fill="#000000" stroke="#000000" points="282.4974,-45.364 277.2762,-36.1451 275.6088,-46.6079 282.4974,-45.364"/>
</g>
<!-- symbolic/operation -->
<g id="node10" class="node">
<title>symbolic/operation</title>
<ellipse fill="none" stroke="#000000" cx="278" cy="-450" rx="99.3824" ry="18"/>
<text text-anchor="middle" x="278" y="-446.3" font-family="Times,serif" font-size="14.00" fill="#000000">symbolic/operation</text>
</g>
<!-- symbolic/operation&#45;&gt;group -->
<g id="edge9" class="edge">
<title>symbolic/operation&#45;&gt;group</title>
<path fill="none" stroke="#000000" d="M337.747,-435.6089C358.2308,-427.507 378.9985,-415.0367 391,-396 412.0733,-362.5737 400.5425,-244.8294 393.7901,-190.2129"/>
<polygon fill="#000000" stroke="#000000" points="397.2473,-189.6539 392.5145,-180.1749 390.3032,-190.5364 397.2473,-189.6539"/>
</g>
<!-- symbolic/operation&#45;&gt;symbolic -->
<g id="edge12" class="edge">
<title>symbolic/operation&#45;&gt;symbolic</title>
<path fill="none" stroke="#000000" d="M234.5035,-433.7686C216.5345,-425.0675 196.9265,-412.6503 184,-396 158.5417,-363.2078 159,-347.5145 159,-306 159,-306 159,-306 159,-234 159,-192.1463 142.7804,-145.9754 130.7444,-117.4754"/>
<polygon fill="#000000" stroke="#000000" points="133.8939,-115.9412 126.695,-108.1676 127.475,-118.7337 133.8939,-115.9412"/>
</g>
<!-- symbolic/operation&#45;&gt;scalar -->
<g id="edge15" class="edge">
<title>symbolic/operation&#45;&gt;scalar</title>
<path fill="none" stroke="#000000" d="M269.0929,-431.8553C256.7642,-405.0234 236,-352.875 236,-306 236,-306 236,-306 236,-162 236,-120.1368 251.2003,-73.6262 262.3737,-45.0925"/>
<polygon fill="#000000" stroke="#000000" points="265.6324,-46.3698 266.1264,-35.7865 259.1404,-43.7518 265.6324,-46.3698"/>
</g>
<!-- symbolic/operation&#45;&gt;vector -->
<g id="edge13" class="edge">
<title>symbolic/operation&#45;&gt;vector</title>
<path fill="none" stroke="#000000" d="M293.8202,-432.2022C301.6861,-423.3531 311.3221,-412.5127 319.9038,-402.8583"/>
<polygon fill="#000000" stroke="#000000" points="322.7747,-404.8966 326.8025,-395.0972 317.5429,-400.2461 322.7747,-404.8966"/>
</g>
<!-- symbolic/operation&#45;&gt;multiplication -->
<g id="edge11" class="edge">
<title>symbolic/operation&#45;&gt;multiplication</title>
<path fill="none" stroke="#000000" d="M339.9241,-435.9036C367.5566,-427.4987 399.3619,-414.7217 424,-396 446.1243,-379.1885 463.9441,-352.769 475.2911,-332.8947"/>
<polygon fill="#000000" stroke="#000000" points="478.4266,-334.4565 480.1865,-324.0089 472.2955,-331.0787 478.4266,-334.4565"/>
</g>
<!-- symbolic/operation&#45;&gt;addition -->
<g id="edge10" class="edge">
<title>symbolic/operation&#45;&gt;addition</title>
<path fill="none" stroke="#000000" d="M280.9239,-431.9555C287.0231,-394.3144 301.141,-307.1867 308.4428,-262.1246"/>
<polygon fill="#000000" stroke="#000000" points="311.9152,-262.5762 310.0598,-252.1451 305.0053,-261.4565 311.9152,-262.5762"/>
</g>
<!-- symbolic/operation&#45;&gt;unit_test -->
<g id="edge14" class="edge">
<title>symbolic/operation&#45;&gt;unit_test</title>
<path fill="none" stroke="#000000" d="M260.2454,-432.2193C236.6768,-406.6391 198,-356.9062 198,-306 198,-306 198,-306 198,-162 198,-120.2219 182.176,-74.0316 170.4336,-45.5067"/>
<polygon fill="#000000" stroke="#000000" points="173.6092,-44.0301 166.483,-36.19 167.1646,-46.7629 173.6092,-44.0301"/>
</g>
<!-- geometry/algebra -->
<g id="node12" class="node">
<title>geometry/algebra</title>
<ellipse fill="none" stroke="#000000" cx="287" cy="-522" rx="92.8835" ry="18"/>
<text text-anchor="middle" x="287" y="-518.3" font-family="Times,serif" font-size="14.00" fill="#000000">geometry/algebra</text>
</g>
<!-- geometry/algebra&#45;&gt;symbolic -->
<g id="edge23" class="edge">
<title>geometry/algebra&#45;&gt;symbolic</title>
<path fill="none" stroke="#000000" d="M236.8484,-506.7547C214.4654,-498.0865 188.9323,-485.4202 170,-468 136.1672,-436.8693 119,-423.9758 119,-378 119,-378 119,-378 119,-234 119,-193.875 118.6069,-147.4624 118.3137,-118.4173"/>
<polygon fill="#000000" stroke="#000000" points="121.8112,-118.1481 118.2072,-108.1851 114.8115,-118.221 121.8112,-118.1481"/>
</g>
<!-- geometry/algebra&#45;&gt;scalar -->
<g id="edge22" class="edge">
<title>geometry/algebra&#45;&gt;scalar</title>
<path fill="none" stroke="#000000" d="M343.6534,-507.609C431.8571,-483.522 592,-432.311 592,-378 592,-378 592,-378 592,-162 592,-102.8288 406.9829,-50.1441 319.1989,-28.4771"/>
<polygon fill="#000000" stroke="#000000" points="319.791,-25.019 309.2466,-26.0509 318.133,-31.8199 319.791,-25.019"/>
</g>
<!-- geometry/algebra&#45;&gt;multiplication -->
<g id="edge21" class="edge">
<title>geometry/algebra&#45;&gt;multiplication</title>
<path fill="none" stroke="#000000" d="M323.9547,-505.3225C343.3277,-495.7409 366.9269,-482.7008 386,-468 420.8622,-441.1297 430.4756,-433.2019 454,-396 466.2473,-376.6318 475.3942,-352.2885 481.2598,-333.8045"/>
<polygon fill="#000000" stroke="#000000" points="484.6174,-334.793 484.1798,-324.2072 477.9205,-332.7554 484.6174,-334.793"/>
</g>
<!-- geometry/algebra&#45;&gt;abs -->
<g id="edge20" class="edge">
<title>geometry/algebra&#45;&gt;abs</title>
<path fill="none" stroke="#000000" d="M212.6291,-511.0936C139.2572,-495.6308 38,-459.5231 38,-378 38,-378 38,-378 38,-162 38,-121.8141 41.1444,-75.417 43.4905,-46.3918"/>
<polygon fill="#000000" stroke="#000000" points="46.9999,-46.4235 44.3424,-36.1674 40.0241,-45.8422 46.9999,-46.4235"/>
</g>
<!-- geometry/algebra&#45;&gt;symbolic/operation -->
<g id="edge19" class="edge">
<title>geometry/algebra&#45;&gt;symbolic/operation</title>
<path fill="none" stroke="#000000" d="M284.7289,-503.8314C283.7664,-496.131 282.6218,-486.9743 281.5521,-478.4166"/>
<polygon fill="#000000" stroke="#000000" points="285.0151,-477.9019 280.3017,-468.4133 278.0691,-478.7702 285.0151,-477.9019"/>
</g>
<!-- geometry/point_transform -->
<g id="node13" class="node">
<title>geometry/point_transform</title>
<ellipse fill="none" stroke="#000000" cx="376" cy="-738" rx="133.4768" ry="18"/>
<text text-anchor="middle" x="376" y="-734.3" font-family="Times,serif" font-size="14.00" fill="#000000">geometry/point_transform</text>
</g>
<!-- geometry/point_transform&#45;&gt;composition -->
<g id="edge26" class="edge">
<title>geometry/point_transform&#45;&gt;composition</title>
<path fill="none" stroke="#000000" d="M474.365,-725.7893C528.7387,-717.0368 589.0451,-703.3501 608,-684 623.8192,-667.8511 627.9531,-642.0425 628.4878,-622.195"/>
<polygon fill="#000000" stroke="#000000" points="631.9878,-622.1574 628.4743,-612.1621 624.9879,-622.1669 631.9878,-622.1574"/>
</g>
<!-- geometry/point_transform&#45;&gt;geometry/algebra -->
<g id="edge25" class="edge">
<title>geometry/point_transform&#45;&gt;geometry/algebra</title>
<path fill="none" stroke="#000000" d="M346.9197,-720.408C334.1695,-711.1712 320.255,-698.7052 312,-684 288.3683,-641.9033 285.0782,-584.4612 285.5477,-550.4966"/>
<polygon fill="#000000" stroke="#000000" points="289.0505,-550.4308 285.8112,-540.3433 282.0528,-550.2491 289.0505,-550.4308"/>
</g>
<!-- geometry/object -->
<g id="node14" class="node">
<title>geometry/object</title>
<ellipse fill="none" stroke="#000000" cx="178" cy="-594" rx="87.1846" ry="18"/>
<text text-anchor="middle" x="178" y="-590.3" font-family="Times,serif" font-size="14.00" fill="#000000">geometry/object</text>
</g>
<!-- geometry/point_transform&#45;&gt;geometry/object -->
<g id="edge24" class="edge">
<title>geometry/point_transform&#45;&gt;geometry/object</title>
<path fill="none" stroke="#000000" d="M340.3064,-720.5401C321.4705,-710.7369 298.3232,-697.7345 279,-684 251.2841,-664.3002 222.613,-638.0965 202.932,-619.0465"/>
<polygon fill="#000000" stroke="#000000" points="205.1899,-616.3591 195.593,-611.8703 200.296,-621.3641 205.1899,-616.3591"/>
</g>
<!-- geometry/vector_transform -->
<g id="node15" class="node">
<title>geometry/vector_transform</title>
<ellipse fill="none" stroke="#000000" cx="460" cy="-666" rx="139.1754" ry="18"/>
<text text-anchor="middle" x="460" y="-662.3" font-family="Times,serif" font-size="14.00" fill="#000000">geometry/vector_transform</text>
</g>
<!-- geometry/point_transform&#45;&gt;geometry/vector_transform -->
<g id="edge27" class="edge">
<title>geometry/point_transform&#45;&gt;geometry/vector_transform</title>
<path fill="none" stroke="#000000" d="M396.7641,-720.2022C407.2642,-711.2021 420.1674,-700.1423 431.5739,-690.3652"/>
<polygon fill="#000000" stroke="#000000" points="433.8689,-693.0079 439.1837,-683.8425 429.3133,-687.6931 433.8689,-693.0079"/>
</g>
<!-- geometry/object&#45;&gt;symbolic -->
<g id="edge32" class="edge">
<title>geometry/object&#45;&gt;symbolic</title>
<path fill="none" stroke="#000000" d="M130.7666,-578.8652C78.0332,-558.6584 0,-517.3745 0,-450 0,-450 0,-450 0,-234 0,-180.8134 48.7554,-136.5045 83.587,-111.636"/>
<polygon fill="#000000" stroke="#000000" points="85.8751,-114.3089 92.1044,-105.7388 81.8903,-108.5537 85.8751,-114.3089"/>
</g>
<!-- geometry/object&#45;&gt;geometry/algebra -->
<g id="edge33" class="edge">
<title>geometry/object&#45;&gt;geometry/algebra</title>
<path fill="none" stroke="#000000" d="M204.1082,-576.7542C218.5625,-567.2064 236.7135,-555.2168 252.3429,-544.8927"/>
<polygon fill="#000000" stroke="#000000" points="254.3121,-547.7867 260.727,-539.3546 250.454,-541.9459 254.3121,-547.7867"/>
</g>
<!-- geometry/vector_transform&#45;&gt;composition -->
<g id="edge31" class="edge">
<title>geometry/vector_transform&#45;&gt;composition</title>
<path fill="none" stroke="#000000" d="M500.0007,-648.7542C524.6431,-638.1299 556.2982,-624.4822 581.84,-613.4702"/>
<polygon fill="#000000" stroke="#000000" points="583.5052,-616.5638 591.3024,-609.3906 580.7338,-610.1357 583.5052,-616.5638"/>
</g>
<!-- geometry/vector_transform&#45;&gt;multiplication -->
<g id="edge30" class="edge">
<title>geometry/vector_transform&#45;&gt;multiplication</title>
<path fill="none" stroke="#000000" d="M473.887,-648.0452C492.71,-621.8615 524,-570.9707 524,-522 524,-522 524,-522 524,-450 524,-408.755 510.2747,-362.697 500.0142,-334.0283"/>
<polygon fill="#000000" stroke="#000000" points="503.1678,-332.4643 496.4226,-324.2941 496.6006,-334.8874 503.1678,-332.4643"/>
</g>
<!-- geometry/vector_transform&#45;&gt;geometry/algebra -->
<g id="edge29" class="edge">
<title>geometry/vector_transform&#45;&gt;geometry/algebra</title>
<path fill="none" stroke="#000000" d="M438.4392,-648.0535C407.5806,-622.3677 350.7371,-575.0528 316.1528,-546.2659"/>
<polygon fill="#000000" stroke="#000000" points="318.214,-543.4278 308.289,-539.7204 313.7358,-548.8079 318.214,-543.4278"/>
</g>
<!-- geometry/vector_transform&#45;&gt;geometry/object -->
<g id="edge28" class="edge">
<title>geometry/vector_transform&#45;&gt;geometry/object</title>
<path fill="none" stroke="#000000" d="M397.0647,-649.9314C351.2417,-638.2319 289.3561,-622.4313 243.0491,-610.6083"/>
<polygon fill="#000000" stroke="#000000" points="243.6749,-607.1558 233.1199,-608.0732 241.9432,-613.9383 243.6749,-607.1558"/>
</g>
</g>
</svg>
