<?xml version="1.0" encoding="UTF-8" standalone="no"?>
<!DOCTYPE svg PUBLIC "-//W3C//DTD SVG 1.1//EN"
 "http://www.w3.org/Graphics/SVG/1.1/DTD/svg11.dtd">
<!-- Generated by graphviz version 2.40.1 (20161225.0304)
 -->
<!-- Title: dependency_graph Pages: 1 -->
<svg width="698pt" height="476pt"
 viewBox="0.00 0.00 697.83 476.00" xmlns="http://www.w3.org/2000/svg" xmlns:xlink="http://www.w3.org/1999/xlink">
<g id="graph0" class="graph" transform="scale(1 1) rotate(0) translate(4 472)">
<title>dependency_graph</title>
<polygon fill="#ffffff" stroke="transparent" points="-4,4 -4,-472 693.8277,-472 693.8277,4 -4,4"/>
<!-- group -->
<g id="node1" class="node">
<title>group</title>
<ellipse fill="none" stroke="#000000" cx="155.8277" cy="-378" rx="38.1938" ry="18"/>
<text text-anchor="middle" x="155.8277" y="-374.3" font-family="Times,serif" font-size="14.00" fill="#000000">group</text>
</g>
<!-- symbolic -->
<g id="node2" class="node">
<title>symbolic</title>
<ellipse fill="none" stroke="#000000" cx="403.8277" cy="-306" rx="51.9908" ry="18"/>
<text text-anchor="middle" x="403.8277" y="-302.3" font-family="Times,serif" font-size="14.00" fill="#000000">symbolic</text>
</g>
<!-- group&#45;&gt;symbolic -->
<g id="edge1" class="edge">
<title>group&#45;&gt;symbolic</title>
<path fill="none" stroke="#000000" d="M187.2129,-367.4535C228.6481,-354.7733 301.8776,-333.4672 351.6659,-319.5715"/>
<polygon fill="#000000" stroke="#000000" points="352.9062,-322.8596 361.6043,-316.8103 351.0323,-316.115 352.9062,-322.8596"/>
</g>
<!-- eval -->
<g id="node3" class="node">
<title>eval</title>
<ellipse fill="none" stroke="#000000" cx="59.8277" cy="-306" rx="29.795" ry="18"/>
<text text-anchor="middle" x="59.8277" y="-302.3" font-family="Times,serif" font-size="14.00" fill="#000000">eval</text>
</g>
<!-- group&#45;&gt;eval -->
<g id="edge2" class="edge">
<title>group&#45;&gt;eval</title>
<path fill="none" stroke="#000000" d="M135.4686,-362.7307C121.3511,-352.1425 102.3945,-337.9251 86.9905,-326.3721"/>
<polygon fill="#000000" stroke="#000000" points="88.9516,-323.4679 78.8516,-320.2679 84.7516,-329.0679 88.9516,-323.4679"/>
</g>
<!-- scalar -->
<g id="node4" class="node">
<title>scalar</title>
<ellipse fill="none" stroke="#000000" cx="436.8277" cy="-18" rx="38.9931" ry="18"/>
<text text-anchor="middle" x="436.8277" y="-14.3" font-family="Times,serif" font-size="14.00" fill="#000000">scalar</text>
</g>
<!-- group&#45;&gt;scalar -->
<g id="edge3" class="edge">
<title>group&#45;&gt;scalar</title>
<path fill="none" stroke="#000000" d="M122.8227,-368.712C87.3906,-358.0888 34.3525,-340.0842 20.8277,-324 -5.4831,-292.7102 1.8277,-274.8816 1.8277,-234 1.8277,-234 1.8277,-234 1.8277,-162 1.8277,-81.2892 275.1272,-38.0557 388.4712,-23.5962"/>
<polygon fill="#000000" stroke="#000000" points="389.1186,-27.0425 398.6056,-22.3259 388.2479,-20.0969 389.1186,-27.0425"/>
</g>
<!-- symbolic&#45;&gt;group -->
<g id="edge9" class="edge">
<title>symbolic&#45;&gt;group</title>
<path fill="none" stroke="#000000" d="M365.9873,-318.5138C321.1164,-332.1361 246.7043,-353.7194 199.4548,-366.8013"/>
<polygon fill="#000000" stroke="#000000" points="198.5173,-363.4291 189.805,-369.4579 200.3753,-370.1781 198.5173,-363.4291"/>
</g>
<!-- symbolic&#45;&gt;scalar -->
<g id="edge8" class="edge">
<title>symbolic&#45;&gt;scalar</title>
<path fill="none" stroke="#000000" d="M422.849,-289.0032C432.3204,-279.2387 442.8007,-266.1277 447.8277,-252 473.0087,-181.232 456.1301,-90.7788 444.7736,-45.8794"/>
<polygon fill="#000000" stroke="#000000" points="448.1019,-44.7736 442.1733,-35.9928 441.3321,-46.5542 448.1019,-44.7736"/>
</g>
<!-- vector -->
<g id="node5" class="node">
<title>vector</title>
<ellipse fill="none" stroke="#000000" cx="383.8277" cy="-234" rx="40.0939" ry="18"/>
<text text-anchor="middle" x="383.8277" y="-230.3" font-family="Times,serif" font-size="14.00" fill="#000000">vector</text>
</g>
<!-- symbolic&#45;&gt;vector -->
<g id="edge6" class="edge">
<title>symbolic&#45;&gt;vector</title>
<path fill="none" stroke="#000000" d="M398.7809,-287.8314C396.5851,-279.9266 393.963,-270.4872 391.5323,-261.7365"/>
<polygon fill="#000000" stroke="#000000" points="394.8525,-260.6118 388.8037,-251.9134 388.1078,-262.4854 394.8525,-260.6118"/>
</g>
<!-- multiplication -->
<g id="node6" class="node">
<title>multiplication</title>
<ellipse fill="none" stroke="#000000" cx="220.8277" cy="-162" rx="75.2868" ry="18"/>
<text text-anchor="middle" x="220.8277" y="-158.3" font-family="Times,serif" font-size="14.00" fill="#000000">multiplication</text>
</g>
<!-- symbolic&#45;&gt;multiplication -->
<g id="edge11" class="edge">
<title>symbolic&#45;&gt;multiplication</title>
<path fill="none" stroke="#000000" d="M355.5446,-299.0519C304.8179,-290.6477 230.0309,-274.7413 212.8277,-252 199.5304,-234.4221 203.2398,-209.0276 209.293,-189.6922"/>
<polygon fill="#000000" stroke="#000000" points="212.6127,-190.8017 212.5945,-180.2069 206.0017,-188.5006 212.6127,-190.8017"/>
</g>
<!-- addition -->
<g id="node7" class="node">
<title>addition</title>
<ellipse fill="none" stroke="#000000" cx="383.8277" cy="-90" rx="48.9926" ry="18"/>
<text text-anchor="middle" x="383.8277" y="-86.3" font-family="Times,serif" font-size="14.00" fill="#000000">addition</text>
</g>
<!-- symbolic&#45;&gt;addition -->
<g id="edge10" class="edge">
<title>symbolic&#45;&gt;addition</title>
<path fill="none" stroke="#000000" d="M416.1373,-288.4267C422.4807,-278.2877 429.557,-265.0031 432.8277,-252 436.7306,-236.4833 435.7779,-231.7257 432.8277,-216 426.1418,-180.361 409.6801,-141.8487 397.6766,-116.9107"/>
<polygon fill="#000000" stroke="#000000" points="400.7187,-115.1652 393.1654,-107.7356 394.4369,-118.2539 400.7187,-115.1652"/>
</g>
<!-- abs -->
<g id="node8" class="node">
<title>abs</title>
<ellipse fill="none" stroke="#000000" cx="544.8277" cy="-234" rx="27" ry="18"/>
<text text-anchor="middle" x="544.8277" y="-230.3" font-family="Times,serif" font-size="14.00" fill="#000000">abs</text>
</g>
<!-- symbolic&#45;&gt;abs -->
<g id="edge7" class="edge">
<title>symbolic&#45;&gt;abs</title>
<path fill="none" stroke="#000000" d="M433.043,-291.0816C456.685,-279.009 489.8909,-262.0528 513.9636,-249.7604"/>
<polygon fill="#000000" stroke="#000000" points="515.7092,-252.799 523.0235,-245.134 512.5257,-246.5647 515.7092,-252.799"/>
</g>
<!-- unit_test -->
<g id="node9" class="node">
<title>unit_test</title>
<ellipse fill="none" stroke="#000000" cx="273.8277" cy="-234" rx="51.9908" ry="18"/>
<text text-anchor="middle" x="273.8277" y="-230.3" font-family="Times,serif" font-size="14.00" fill="#000000">unit_test</text>
</g>
<!-- symbolic&#45;&gt;unit_test -->
<g id="edge12" class="edge">
<title>symbolic&#45;&gt;unit_test</title>
<path fill="none" stroke="#000000" d="M376.258,-290.7307C357.1703,-280.159 331.55,-265.9693 310.708,-254.426"/>
<polygon fill="#000000" stroke="#000000" points="312.2495,-251.2788 301.8058,-249.4956 308.8579,-257.4024 312.2495,-251.2788"/>
</g>
<!-- name -->
<g id="node10" class="node">
<title>name</title>
<ellipse fill="none" stroke="#000000" cx="625.8277" cy="-234" rx="36.2938" ry="18"/>
<text text-anchor="middle" x="625.8277" y="-230.3" font-family="Times,serif" font-size="14.00" fill="#000000">name</text>
</g>
<!-- symbolic&#45;&gt;name -->
<g id="edge13" class="edge">
<title>symbolic&#45;&gt;name</title>
<path fill="none" stroke="#000000" d="M444.5654,-294.6311C480.6462,-284.311 534.6105,-268.2609 580.8277,-252 583.3453,-251.1142 585.9299,-250.1716 588.5262,-249.1998"/>
<polygon fill="#000000" stroke="#000000" points="589.8031,-252.4587 597.8806,-245.6026 587.2906,-245.9251 589.8031,-252.4587"/>
</g>
<!-- vector&#45;&gt;multiplication -->
<g id="edge4" class="edge">
<title>vector&#45;&gt;multiplication</title>
<path fill="none" stroke="#000000" d="M355.0618,-221.2936C330.4281,-210.4124 294.5303,-194.5557 266.0545,-181.9775"/>
<polygon fill="#000000" stroke="#000000" points="267.2706,-178.6885 256.7091,-177.8494 264.4422,-185.0916 267.2706,-178.6885"/>
</g>
<!-- vector&#45;&gt;addition -->
<g id="edge5" class="edge">
<title>vector&#45;&gt;addition</title>
<path fill="none" stroke="#000000" d="M383.8277,-215.7623C383.8277,-191.201 383.8277,-147.2474 383.8277,-118.3541"/>
<polygon fill="#000000" stroke="#000000" points="387.3278,-118.0896 383.8277,-108.0896 380.3278,-118.0897 387.3278,-118.0896"/>
</g>
<!-- multiplication&#45;&gt;group -->
<g id="edge22" class="edge">
<title>multiplication&#45;&gt;group</title>
<path fill="none" stroke="#000000" d="M212.7036,-180.2759C208.2711,-190.6347 202.8783,-203.9051 198.8277,-216 183.3854,-262.1099 169.7809,-317.0512 162.1951,-349.6462"/>
<polygon fill="#000000" stroke="#000000" points="158.6906,-349.2683 159.8592,-359.7985 165.5124,-350.8379 158.6906,-349.2683"/>
</g>
<!-- multiplication&#45;&gt;addition -->
<g id="edge23" class="edge">
<title>multiplication&#45;&gt;addition</title>
<path fill="none" stroke="#000000" d="M257.0027,-146.0209C282.4802,-134.767 316.6225,-119.6857 343.064,-108.0061"/>
<polygon fill="#000000" stroke="#000000" points="344.6937,-111.1125 352.4268,-103.8703 341.8652,-104.7094 344.6937,-111.1125"/>
</g>
<!-- addition&#45;&gt;group -->
<g id="edge14" class="edge">
<title>addition&#45;&gt;group</title>
<path fill="none" stroke="#000000" d="M335.8329,-93.5091C271.1701,-99.3491 161.3248,-113.5686 136.8277,-144 88.3896,-204.1718 122.0831,-303.498 142.8494,-351.028"/>
<polygon fill="#000000" stroke="#000000" points="139.7512,-352.672 147.0503,-360.3514 146.1333,-349.7963 139.7512,-352.672"/>
</g>
<!-- addition&#45;&gt;scalar -->
<g id="edge15" class="edge">
<title>addition&#45;&gt;scalar</title>
<path fill="none" stroke="#000000" d="M396.6575,-72.5708C403.1025,-63.8153 411.0331,-53.0418 418.1403,-43.3867"/>
<polygon fill="#000000" stroke="#000000" points="421.0065,-45.3969 424.116,-35.2687 415.3691,-41.2472 421.0065,-45.3969"/>
</g>
<!-- geometry -->
<g id="node11" class="node">
<title>geometry</title>
<ellipse fill="none" stroke="#000000" cx="493.8277" cy="-450" rx="55.4913" ry="18"/>
<text text-anchor="middle" x="493.8277" y="-446.3" font-family="Times,serif" font-size="14.00" fill="#000000">geometry</text>
</g>
<!-- geometry&#45;&gt;group -->
<g id="edge21" class="edge">
<title>geometry&#45;&gt;group</title>
<path fill="none" stroke="#000000" d="M447.539,-440.1397C382.4954,-426.2842 264.8363,-401.2208 200.6143,-387.5403"/>
<polygon fill="#000000" stroke="#000000" points="201.2919,-384.1062 190.7821,-385.4459 199.8335,-390.9526 201.2919,-384.1062"/>
</g>
<!-- geometry&#45;&gt;symbolic -->
<g id="edge17" class="edge">
<title>geometry&#45;&gt;symbolic</title>
<path fill="none" stroke="#000000" d="M482.7919,-432.3428C467.2054,-407.4043 438.6217,-361.6705 420.456,-332.6052"/>
<polygon fill="#000000" stroke="#000000" points="423.2218,-330.4266 414.9537,-323.8017 417.2858,-334.1367 423.2218,-330.4266"/>
</g>
<!-- geometry&#45;&gt;scalar -->
<g id="edge20" class="edge">
<title>geometry&#45;&gt;scalar</title>
<path fill="none" stroke="#000000" d="M537.8139,-438.8254C595.6012,-421.1919 689.8277,-380.9481 689.8277,-306 689.8277,-306 689.8277,-306 689.8277,-162 689.8277,-68.7191 558.3181,-35.0927 484.9284,-23.5899"/>
<polygon fill="#000000" stroke="#000000" points="485.3845,-20.1193 474.9783,-22.1097 484.3544,-27.0431 485.3845,-20.1193"/>
</g>
<!-- geometry&#45;&gt;multiplication -->
<g id="edge19" class="edge">
<title>geometry&#45;&gt;multiplication</title>
<path fill="none" stroke="#000000" d="M439.7985,-446.0366C348.2985,-438.7276 167.1045,-421.5051 108.8277,-396 62.5333,-375.739 42.4679,-369.666 20.8277,-324 -12.6163,-253.4251 92.8308,-203.7058 163.1072,-179.2611"/>
<polygon fill="#000000" stroke="#000000" points="164.4279,-182.509 172.772,-175.98 162.1776,-175.8805 164.4279,-182.509"/>
</g>
<!-- geometry&#45;&gt;abs -->
<g id="edge18" class="edge">
<title>geometry&#45;&gt;abs</title>
<path fill="none" stroke="#000000" d="M498.0882,-431.9555C506.9979,-394.2205 527.6502,-306.7518 538.2666,-261.7882"/>
<polygon fill="#000000" stroke="#000000" points="541.7235,-262.378 540.6152,-251.8413 534.9108,-260.7694 541.7235,-262.378"/>
</g>
<!-- geometry&#45;&gt;name -->
<g id="edge16" class="edge">
<title>geometry&#45;&gt;name</title>
<path fill="none" stroke="#000000" d="M504.6298,-432.3238C527.8535,-394.3214 582.632,-304.6839 609.8718,-260.1096"/>
<polygon fill="#000000" stroke="#000000" points="613.0172,-261.6747 615.2453,-251.3167 607.0442,-258.0245 613.0172,-261.6747"/>
</g>
</g>
</svg>
