<?xml version="1.0" encoding="UTF-8" standalone="no"?>
<!DOCTYPE svg PUBLIC "-//W3C//DTD SVG 1.1//EN"
 "http://www.w3.org/Graphics/SVG/1.1/DTD/svg11.dtd">
<!-- Generated by graphviz version 2.40.1 (20161225.0304)
 -->
<!-- Title: dependency_graph Pages: 1 -->
<svg width="278pt" height="332pt"
 viewBox="0.00 0.00 277.93 332.00" xmlns="http://www.w3.org/2000/svg" xmlns:xlink="http://www.w3.org/1999/xlink">
<g id="graph0" class="graph" transform="scale(1 1) rotate(0) translate(4 328)">
<title>dependency_graph</title>
<polygon fill="#ffffff" stroke="transparent" points="-4,4 -4,-328 273.9277,-328 273.9277,4 -4,4"/>
<!-- scalar.h -->
<g id="node1" class="node">
<title>scalar.h</title>
<ellipse fill="none" stroke="#000000" cx="195.1459" cy="-234" rx="46.5926" ry="18"/>
<text text-anchor="middle" x="195.1459" y="-230.3" font-family="Times,serif" font-size="14.00" fill="#000000">scalar.h</text>
</g>
<!-- symbolic -->
<g id="node2" class="node">
<title>symbolic</title>
<ellipse fill="none" stroke="#000000" cx="139.1459" cy="-162" rx="51.9908" ry="18"/>
<text text-anchor="middle" x="139.1459" y="-158.3" font-family="Times,serif" font-size="14.00" fill="#000000">symbolic</text>
</g>
<!-- scalar.h&#45;&gt;symbolic -->
<g id="edge1" class="edge">
<title>scalar.h&#45;&gt;symbolic</title>
<path fill="none" stroke="#000000" d="M181.5899,-216.5708C174.8301,-207.8797 166.5238,-197.2001 159.0569,-187.5998"/>
<polygon fill="#000000" stroke="#000000" points="161.6734,-185.263 152.7712,-179.5182 156.1479,-189.5606 161.6734,-185.263"/>
</g>
<!-- vector -->
<g id="node4" class="node">
<title>vector</title>
<ellipse fill="none" stroke="#000000" cx="179.1459" cy="-90" rx="40.0939" ry="18"/>
<text text-anchor="middle" x="179.1459" y="-86.3" font-family="Times,serif" font-size="14.00" fill="#000000">vector</text>
</g>
<!-- symbolic&#45;&gt;vector -->
<g id="edge7" class="edge">
<title>symbolic&#45;&gt;vector</title>
<path fill="none" stroke="#000000" d="M149.0335,-144.2022C153.6837,-135.832 159.3236,-125.6802 164.4595,-116.4356"/>
<polygon fill="#000000" stroke="#000000" points="167.5751,-118.0344 169.372,-107.593 161.456,-114.6348 167.5751,-118.0344"/>
</g>
<!-- algebra -->
<g id="node3" class="node">
<title>algebra</title>
<ellipse fill="none" stroke="#000000" cx="46.1459" cy="-234" rx="46.2923" ry="18"/>
<text text-anchor="middle" x="46.1459" y="-230.3" font-family="Times,serif" font-size="14.00" fill="#000000">algebra</text>
</g>
<!-- algebra&#45;&gt;symbolic -->
<g id="edge2" class="edge">
<title>algebra&#45;&gt;symbolic</title>
<path fill="none" stroke="#000000" d="M67.249,-217.6621C79.7644,-207.9728 95.8203,-195.5424 109.5834,-184.8871"/>
<polygon fill="#000000" stroke="#000000" points="112.0397,-187.4118 117.8044,-178.5225 107.7545,-181.8767 112.0397,-187.4118"/>
</g>
<!-- algebra&#45;&gt;vector -->
<g id="edge3" class="edge">
<title>algebra&#45;&gt;vector</title>
<path fill="none" stroke="#000000" d="M48.635,-215.8295C52.1618,-196.1312 60.2954,-164.7379 78.1459,-144 93.5993,-126.047 116.5426,-113.109 136.6582,-104.4063"/>
<polygon fill="#000000" stroke="#000000" points="138.0399,-107.6226 145.9616,-100.5871 135.3816,-101.147 138.0399,-107.6226"/>
</g>
<!-- group -->
<g id="node5" class="node">
<title>group</title>
<ellipse fill="none" stroke="#000000" cx="179.1459" cy="-18" rx="38.1938" ry="18"/>
<text text-anchor="middle" x="179.1459" y="-14.3" font-family="Times,serif" font-size="14.00" fill="#000000">group</text>
</g>
<!-- algebra&#45;&gt;group -->
<g id="edge4" class="edge">
<title>algebra&#45;&gt;group</title>
<path fill="none" stroke="#000000" d="M44.5261,-215.8238C43.6094,-196.9545 44.3443,-167.0316 55.1459,-144 76.0214,-99.4883 119.3231,-61.3473 148.8117,-39.0324"/>
<polygon fill="#000000" stroke="#000000" points="151.1485,-41.6573 157.1057,-32.8958 146.9851,-36.03 151.1485,-41.6573"/>
</g>
<!-- vector&#45;&gt;scalar.h -->
<g id="edge6" class="edge">
<title>vector&#45;&gt;scalar.h</title>
<path fill="none" stroke="#000000" d="M188.0841,-107.9958C192.6852,-118.267 197.809,-131.543 200.1459,-144 203.9872,-164.4757 202.4813,-187.9937 200.1507,-205.8528"/>
<polygon fill="#000000" stroke="#000000" points="196.6646,-205.5032 198.6756,-215.9055 203.5904,-206.5196 196.6646,-205.5032"/>
</g>
<!-- vector&#45;&gt;group -->
<g id="edge5" class="edge">
<title>vector&#45;&gt;group</title>
<path fill="none" stroke="#000000" d="M179.1459,-71.8314C179.1459,-64.131 179.1459,-54.9743 179.1459,-46.4166"/>
<polygon fill="#000000" stroke="#000000" points="182.646,-46.4132 179.1459,-36.4133 175.646,-46.4133 182.646,-46.4132"/>
</g>
<!-- geometry -->
<g id="node6" class="node">
<title>geometry</title>
<ellipse fill="none" stroke="#000000" cx="195.1459" cy="-306" rx="55.4913" ry="18"/>
<text text-anchor="middle" x="195.1459" y="-302.3" font-family="Times,serif" font-size="14.00" fill="#000000">geometry</text>
</g>
<!-- geometry&#45;&gt;symbolic -->
<g id="edge8" class="edge">
<title>geometry&#45;&gt;symbolic</title>
<path fill="none" stroke="#000000" d="M170.7666,-289.7992C158.8238,-280.3526 145.6424,-267.2894 139.1459,-252 130.8711,-232.5254 131.3509,-208.4697 133.6386,-190.1293"/>
<polygon fill="#000000" stroke="#000000" points="137.1255,-190.4765 135.142,-180.069 130.2024,-189.4418 137.1255,-190.4765"/>
</g>
<!-- geometry&#45;&gt;algebra -->
<g id="edge9" class="edge">
<title>geometry&#45;&gt;algebra</title>
<path fill="none" stroke="#000000" d="M163.9106,-290.9064C140.7561,-279.7177 109.069,-264.4058 84.3959,-252.4832"/>
<polygon fill="#000000" stroke="#000000" points="85.8423,-249.295 75.3156,-248.0954 82.7967,-255.5977 85.8423,-249.295"/>
</g>
<!-- geometry&#45;&gt;vector -->
<g id="edge10" class="edge">
<title>geometry&#45;&gt;vector</title>
<path fill="none" stroke="#000000" d="M219.5252,-289.7992C231.468,-280.3526 244.6494,-267.2894 251.1459,-252 257.403,-237.2742 254.822,-231.572 251.1459,-216 242.124,-177.7824 217.3994,-139.3962 199.4368,-115.2129"/>
<polygon fill="#000000" stroke="#000000" points="202.0073,-112.8111 193.1665,-106.9724 196.4366,-117.05 202.0073,-112.8111"/>
</g>
<!-- geometry&#45;&gt;group -->
<g id="edge11" class="edge">
<title>geometry&#45;&gt;group</title>
<path fill="none" stroke="#000000" d="M226.2418,-291.0164C241.235,-281.9847 257.7534,-268.9272 266.1459,-252 273.2532,-237.6652 268.2042,-231.867 266.1459,-216 257.6307,-150.3591 259.7313,-130.1687 228.1459,-72 222.072,-60.8141 213.2105,-50.0849 204.6881,-41.1791"/>
<polygon fill="#000000" stroke="#000000" points="206.9108,-38.4522 197.3645,-33.8566 201.9614,-43.4023 206.9108,-38.4522"/>
</g>
</g>
</svg>
