<?xml version="1.0" encoding="UTF-8" standalone="no"?>
<!DOCTYPE svg PUBLIC "-//W3C//DTD SVG 1.1//EN"
 "http://www.w3.org/Graphics/SVG/1.1/DTD/svg11.dtd">
<!-- Generated by graphviz version 2.43.20190912.0211 (20190912.0211)
 -->
<!-- Title: dependency_graph Pages: 1 -->
<svg width="1024pt" height="980pt"
 viewBox="0.00 0.00 1024.00 980.00" xmlns="http://www.w3.org/2000/svg" xmlns:xlink="http://www.w3.org/1999/xlink">
<g id="graph0" class="graph" transform="scale(1 1) rotate(0) translate(4 976)">
<title>dependency_graph</title>
<polygon fill="white" stroke="transparent" points="-4,4 -4,-976 1020,-976 1020,4 -4,4"/>
<!-- group -->
<g id="node1" class="node">
<title>group</title>
<ellipse fill="none" stroke="black" cx="674" cy="-306" rx="38.19" ry="18"/>
<text text-anchor="middle" x="674" y="-302.3" font-family="Times,serif" font-size="14.00">group</text>
</g>
<!-- symbolic -->
<g id="node2" class="node">
<title>symbolic</title>
<ellipse fill="none" stroke="black" cx="679" cy="-234" rx="51.99" ry="18"/>
<text text-anchor="middle" x="679" y="-230.3" font-family="Times,serif" font-size="14.00">symbolic</text>
</g>
<!-- group&#45;&gt;symbolic -->
<g id="edge1" class="edge">
<title>group&#45;&gt;symbolic</title>
<path fill="none" stroke="black" d="M675.24,-287.7C675.79,-279.98 676.45,-270.71 677.06,-262.11"/>
<polygon fill="black" stroke="black" points="680.56,-262.33 677.78,-252.1 673.57,-261.83 680.56,-262.33"/>
</g>
<!-- eval -->
<g id="node3" class="node">
<title>eval</title>
<ellipse fill="none" stroke="black" cx="864" cy="-162" rx="29.8" ry="18"/>
<text text-anchor="middle" x="864" y="-158.3" font-family="Times,serif" font-size="14.00">eval</text>
</g>
<!-- group&#45;&gt;eval -->
<g id="edge2" class="edge">
<title>group&#45;&gt;eval</title>
<path fill="none" stroke="black" d="M693.62,-290.34C728,-264.65 799.13,-211.48 837.72,-182.64"/>
<polygon fill="black" stroke="black" points="839.97,-185.33 845.89,-176.54 835.78,-179.72 839.97,-185.33"/>
</g>
<!-- scalar -->
<g id="node4" class="node">
<title>scalar</title>
<ellipse fill="none" stroke="black" cx="382" cy="-162" rx="38.19" ry="18"/>
<text text-anchor="middle" x="382" y="-158.3" font-family="Times,serif" font-size="14.00">scalar</text>
</g>
<!-- group&#45;&gt;scalar -->
<g id="edge3" class="edge">
<title>group&#45;&gt;scalar</title>
<path fill="none" stroke="black" d="M648.34,-292.52C595.9,-267.02 476.37,-208.89 416.92,-179.98"/>
<polygon fill="black" stroke="black" points="418.44,-176.83 407.91,-175.6 415.37,-183.12 418.44,-176.83"/>
</g>
<!-- symbolic&#45;&gt;eval -->
<g id="edge12" class="edge">
<title>symbolic&#45;&gt;eval</title>
<path fill="none" stroke="black" d="M713.78,-220.44C742.81,-209.87 785.22,-194.26 822,-180 824.84,-178.9 827.79,-177.74 830.74,-176.57"/>
<polygon fill="black" stroke="black" points="832.08,-179.8 840.06,-172.83 829.48,-173.3 832.08,-179.8"/>
</g>
<!-- symbolic&#45;&gt;scalar -->
<g id="edge11" class="edge">
<title>symbolic&#45;&gt;scalar</title>
<path fill="none" stroke="black" d="M637.39,-223.19C581.37,-209.99 482.16,-186.61 425.29,-173.2"/>
<polygon fill="black" stroke="black" points="426.06,-169.79 415.52,-170.9 424.45,-176.6 426.06,-169.79"/>
</g>
<!-- unit_test -->
<g id="node13" class="node">
<title>unit_test</title>
<ellipse fill="none" stroke="black" cx="761" cy="-162" rx="51.99" ry="18"/>
<text text-anchor="middle" x="761" y="-158.3" font-family="Times,serif" font-size="14.00">unit_test</text>
</g>
<!-- symbolic&#45;&gt;unit_test -->
<g id="edge23" class="edge">
<title>symbolic&#45;&gt;unit_test</title>
<path fill="none" stroke="black" d="M697.61,-217.12C708.62,-207.72 722.73,-195.67 734.85,-185.33"/>
<polygon fill="black" stroke="black" points="737.13,-187.98 742.47,-178.82 732.59,-182.65 737.13,-187.98"/>
</g>
<!-- cpp20_concepts -->
<g id="node14" class="node">
<title>cpp20_concepts</title>
<ellipse fill="none" stroke="black" cx="648" cy="-18" rx="84.49" ry="18"/>
<text text-anchor="middle" x="648" y="-14.3" font-family="Times,serif" font-size="14.00">cpp20_concepts</text>
</g>
<!-- symbolic&#45;&gt;cpp20_concepts -->
<g id="edge22" class="edge">
<title>symbolic&#45;&gt;cpp20_concepts</title>
<path fill="none" stroke="black" d="M677.59,-215.99C675,-186.53 668.96,-124.15 660,-72 658.54,-63.5 656.59,-54.31 654.69,-46.01"/>
<polygon fill="black" stroke="black" points="658.06,-45.02 652.35,-36.09 651.24,-46.63 658.06,-45.02"/>
</g>
<!-- hana -->
<g id="node10" class="node">
<title>hana</title>
<ellipse fill="none" stroke="black" cx="618" cy="-90" rx="33.29" ry="18"/>
<text text-anchor="middle" x="618" y="-86.3" font-family="Times,serif" font-size="14.00">hana</text>
</g>
<!-- eval&#45;&gt;hana -->
<g id="edge10" class="edge">
<title>eval&#45;&gt;hana</title>
<path fill="none" stroke="black" d="M840.21,-150.74C834.32,-148.38 827.97,-145.98 822,-144 766.11,-125.52 699.91,-109.33 658.42,-99.86"/>
<polygon fill="black" stroke="black" points="658.96,-96.39 648.43,-97.6 657.41,-103.22 658.96,-96.39"/>
</g>
<!-- expression -->
<g id="node5" class="node">
<title>expression</title>
<ellipse fill="none" stroke="black" cx="509" cy="-378" rx="61.19" ry="18"/>
<text text-anchor="middle" x="509" y="-374.3" font-family="Times,serif" font-size="14.00">expression</text>
</g>
<!-- expression&#45;&gt;group -->
<g id="edge4" class="edge">
<title>expression&#45;&gt;group</title>
<path fill="none" stroke="black" d="M542.39,-362.83C569.77,-351.22 608.49,-334.79 636.84,-322.76"/>
<polygon fill="black" stroke="black" points="638.56,-325.84 646.4,-318.71 635.83,-319.39 638.56,-325.84"/>
</g>
<!-- expression&#45;&gt;symbolic -->
<g id="edge5" class="edge">
<title>expression&#45;&gt;symbolic</title>
<path fill="none" stroke="black" d="M528.5,-360.71C558.94,-335.28 617.81,-286.11 652.21,-257.38"/>
<polygon fill="black" stroke="black" points="654.55,-259.98 659.99,-250.88 650.07,-254.61 654.55,-259.98"/>
</g>
<!-- expression&#45;&gt;scalar -->
<g id="edge6" class="edge">
<title>expression&#45;&gt;scalar</title>
<path fill="none" stroke="black" d="M503.27,-360.02C492.52,-329.52 467.37,-264.16 434,-216 426.43,-205.07 416.52,-194.35 407.38,-185.44"/>
<polygon fill="black" stroke="black" points="409.63,-182.74 399.96,-178.41 404.82,-187.83 409.63,-182.74"/>
</g>
<!-- composition -->
<g id="node6" class="node">
<title>composition</title>
<ellipse fill="none" stroke="black" cx="822" cy="-738" rx="66.89" ry="18"/>
<text text-anchor="middle" x="822" y="-734.3" font-family="Times,serif" font-size="14.00">composition</text>
</g>
<!-- composition&#45;&gt;group -->
<g id="edge7" class="edge">
<title>composition&#45;&gt;group</title>
<path fill="none" stroke="black" d="M820.79,-719.67C816.25,-663.94 796.72,-485.66 726,-360 719.48,-348.42 709.77,-337.56 700.51,-328.73"/>
<polygon fill="black" stroke="black" points="702.66,-325.96 692.91,-321.82 697.95,-331.14 702.66,-325.96"/>
</g>
<!-- vector -->
<g id="node7" class="node">
<title>vector</title>
<ellipse fill="none" stroke="black" cx="530" cy="-594" rx="40.09" ry="18"/>
<text text-anchor="middle" x="530" y="-590.3" font-family="Times,serif" font-size="14.00">vector</text>
</g>
<!-- multiplication -->
<g id="node8" class="node">
<title>multiplication</title>
<ellipse fill="none" stroke="black" cx="455" cy="-522" rx="75.29" ry="18"/>
<text text-anchor="middle" x="455" y="-518.3" font-family="Times,serif" font-size="14.00">multiplication</text>
</g>
<!-- vector&#45;&gt;multiplication -->
<g id="edge8" class="edge">
<title>vector&#45;&gt;multiplication</title>
<path fill="none" stroke="black" d="M513.36,-577.46C503.7,-568.45 491.34,-556.92 480.49,-546.79"/>
<polygon fill="black" stroke="black" points="482.61,-543.98 472.91,-539.71 477.83,-549.1 482.61,-543.98"/>
</g>
<!-- addition -->
<g id="node9" class="node">
<title>addition</title>
<ellipse fill="none" stroke="black" cx="491" cy="-450" rx="48.99" ry="18"/>
<text text-anchor="middle" x="491" y="-446.3" font-family="Times,serif" font-size="14.00">addition</text>
</g>
<!-- vector&#45;&gt;addition -->
<g id="edge9" class="edge">
<title>vector&#45;&gt;addition</title>
<path fill="none" stroke="black" d="M536.2,-575.99C541.89,-557.61 548.16,-527.76 539,-504 534.65,-492.71 526.65,-482.34 518.42,-473.82"/>
<polygon fill="black" stroke="black" points="520.83,-471.28 511.21,-466.83 515.96,-476.3 520.83,-471.28"/>
</g>
<!-- multiplication&#45;&gt;group -->
<g id="edge58" class="edge">
<title>multiplication&#45;&gt;group</title>
<path fill="none" stroke="black" d="M487.96,-505.74C506.78,-496.23 530.28,-482.98 549,-468 597.74,-428.99 638.67,-367.29 659.4,-332.7"/>
<polygon fill="black" stroke="black" points="662.64,-334.09 664.7,-323.7 656.61,-330.54 662.64,-334.09"/>
</g>
<!-- multiplication&#45;&gt;scalar -->
<g id="edge60" class="edge">
<title>multiplication&#45;&gt;scalar</title>
<path fill="none" stroke="black" d="M446.79,-503.65C442.22,-493.45 436.72,-480.2 433,-468 402.59,-368.32 388.97,-244.43 384.17,-190.37"/>
<polygon fill="black" stroke="black" points="387.64,-189.88 383.3,-180.22 380.67,-190.48 387.64,-189.88"/>
</g>
<!-- multiplication&#45;&gt;addition -->
<g id="edge59" class="edge">
<title>multiplication&#45;&gt;addition</title>
<path fill="none" stroke="black" d="M463.71,-504.05C467.92,-495.89 473.05,-485.91 477.72,-476.82"/>
<polygon fill="black" stroke="black" points="480.9,-478.28 482.37,-467.79 474.68,-475.08 480.9,-478.28"/>
</g>
<!-- abs -->
<g id="node16" class="node">
<title>abs</title>
<ellipse fill="none" stroke="black" cx="350" cy="-450" rx="27" ry="18"/>
<text text-anchor="middle" x="350" y="-446.3" font-family="Times,serif" font-size="14.00">abs</text>
</g>
<!-- multiplication&#45;&gt;abs -->
<g id="edge61" class="edge">
<title>multiplication&#45;&gt;abs</title>
<path fill="none" stroke="black" d="M430.91,-504.94C414.87,-494.25 393.77,-480.18 377.13,-469.09"/>
<polygon fill="black" stroke="black" points="378.67,-465.91 368.41,-463.28 374.79,-471.73 378.67,-465.91"/>
</g>
<!-- addition&#45;&gt;group -->
<g id="edge24" class="edge">
<title>addition&#45;&gt;group</title>
<path fill="none" stroke="black" d="M517.73,-434.84C535.68,-424.88 559.51,-410.74 579,-396 605.66,-375.84 633.22,-349.28 651.74,-330.43"/>
<polygon fill="black" stroke="black" points="654.63,-332.48 659.1,-322.87 649.62,-327.6 654.63,-332.48"/>
</g>
<!-- addition&#45;&gt;scalar -->
<g id="edge26" class="edge">
<title>addition&#45;&gt;scalar</title>
<path fill="none" stroke="black" d="M470.99,-433.33C459.99,-423.69 446.99,-410.44 439,-396 399.19,-324.02 416.06,-295.77 396,-216 393.88,-207.56 391.49,-198.39 389.29,-190.09"/>
<polygon fill="black" stroke="black" points="392.6,-188.92 386.64,-180.16 385.84,-190.72 392.6,-188.92"/>
</g>
<!-- addition&#45;&gt;expression -->
<g id="edge25" class="edge">
<title>addition&#45;&gt;expression</title>
<path fill="none" stroke="black" d="M495.36,-432.05C497.36,-424.26 499.79,-414.82 502.04,-406.08"/>
<polygon fill="black" stroke="black" points="505.46,-406.83 504.56,-396.28 498.68,-405.09 505.46,-406.83"/>
</g>
<!-- differentiate -->
<g id="node12" class="node">
<title>differentiate</title>
<ellipse fill="none" stroke="black" cx="286" cy="-378" rx="68.49" ry="18"/>
<text text-anchor="middle" x="286" y="-374.3" font-family="Times,serif" font-size="14.00">differentiate</text>
</g>
<!-- addition&#45;&gt;differentiate -->
<g id="edge27" class="edge">
<title>addition&#45;&gt;differentiate</title>
<path fill="none" stroke="black" d="M456.22,-437.13C423.09,-425.81 372.86,-408.66 335.54,-395.92"/>
<polygon fill="black" stroke="black" points="336.46,-392.53 325.87,-392.61 334.2,-399.16 336.46,-392.53"/>
</g>
<!-- hana&#45;&gt;cpp20_concepts -->
<g id="edge28" class="edge">
<title>hana&#45;&gt;cpp20_concepts</title>
<path fill="none" stroke="black" d="M625.11,-72.41C628.57,-64.34 632.82,-54.43 636.71,-45.35"/>
<polygon fill="black" stroke="black" points="640.01,-46.53 640.73,-35.96 633.58,-43.77 640.01,-46.53"/>
</g>
<!-- symbolic/operation -->
<g id="node11" class="node">
<title>symbolic/operation</title>
<ellipse fill="none" stroke="black" cx="547" cy="-666" rx="98.58" ry="18"/>
<text text-anchor="middle" x="547" y="-662.3" font-family="Times,serif" font-size="14.00">symbolic/operation</text>
</g>
<!-- symbolic/operation&#45;&gt;group -->
<g id="edge13" class="edge">
<title>symbolic/operation&#45;&gt;group</title>
<path fill="none" stroke="black" d="M566.3,-648.06C576.2,-638.41 587.69,-625.55 595,-612 645.76,-517.9 665.06,-389.68 671.35,-334.31"/>
<polygon fill="black" stroke="black" points="674.85,-334.56 672.44,-324.24 667.89,-333.8 674.85,-334.56"/>
</g>
<!-- symbolic/operation&#45;&gt;symbolic -->
<g id="edge18" class="edge">
<title>symbolic/operation&#45;&gt;symbolic</title>
<path fill="none" stroke="black" d="M589.81,-649.66C659.06,-621.77 788,-555.78 788,-451 788,-451 788,-451 788,-377 788,-325.65 742.59,-281.43 710.39,-256.53"/>
<polygon fill="black" stroke="black" points="712.22,-253.52 702.12,-250.32 708.02,-259.12 712.22,-253.52"/>
</g>
<!-- symbolic/operation&#45;&gt;eval -->
<g id="edge17" class="edge">
<title>symbolic/operation&#45;&gt;eval</title>
<path fill="none" stroke="black" d="M624.42,-654.75C669.96,-646.86 727.87,-633.57 776,-612 838.57,-583.97 902,-591.56 902,-523 902,-523 902,-523 902,-305 902,-263.41 886.6,-217.22 875.4,-189.14"/>
<polygon fill="black" stroke="black" points="878.55,-187.58 871.51,-179.66 872.07,-190.24 878.55,-187.58"/>
</g>
<!-- symbolic/operation&#45;&gt;scalar -->
<g id="edge21" class="edge">
<title>symbolic/operation&#45;&gt;scalar</title>
<path fill="none" stroke="black" d="M496.23,-650.52C397.67,-618.96 190,-534.06 190,-379 190,-379 190,-379 190,-305 190,-231.47 282.15,-191.67 338.77,-174.15"/>
<polygon fill="black" stroke="black" points="339.97,-177.45 348.56,-171.24 337.97,-170.74 339.97,-177.45"/>
</g>
<!-- symbolic/operation&#45;&gt;vector -->
<g id="edge19" class="edge">
<title>symbolic/operation&#45;&gt;vector</title>
<path fill="none" stroke="black" d="M542.8,-647.7C540.9,-639.9 538.62,-630.51 536.52,-621.83"/>
<polygon fill="black" stroke="black" points="539.92,-621 534.15,-612.1 533.11,-622.65 539.92,-621"/>
</g>
<!-- symbolic/operation&#45;&gt;multiplication -->
<g id="edge15" class="edge">
<title>symbolic/operation&#45;&gt;multiplication</title>
<path fill="none" stroke="black" d="M519.54,-648.66C506.17,-639.43 490.88,-626.78 481,-612 468.53,-593.34 461.93,-568.61 458.51,-549.95"/>
<polygon fill="black" stroke="black" points="461.95,-549.33 456.88,-540.03 455.04,-550.46 461.95,-549.33"/>
</g>
<!-- symbolic/operation&#45;&gt;addition -->
<g id="edge14" class="edge">
<title>symbolic/operation&#45;&gt;addition</title>
<path fill="none" stroke="black" d="M560.56,-647.97C567.56,-638.09 575.37,-625.05 579,-612 583.29,-596.59 581.46,-591.81 579,-576 573.83,-542.81 574.91,-531.76 556,-504 547.49,-491.51 535.2,-480.43 523.58,-471.68"/>
<polygon fill="black" stroke="black" points="525.47,-468.73 515.31,-465.73 521.39,-474.41 525.47,-468.73"/>
</g>
<!-- symbolic/operation&#45;&gt;differentiate -->
<g id="edge16" class="edge">
<title>symbolic/operation&#45;&gt;differentiate</title>
<path fill="none" stroke="black" d="M515.45,-648.86C463.32,-620.3 360.38,-555.53 314,-468 303.6,-448.38 296.31,-424.25 291.78,-406.07"/>
<polygon fill="black" stroke="black" points="295.14,-405.05 289.43,-396.13 288.33,-406.66 295.14,-405.05"/>
</g>
<!-- symbolic/operation&#45;&gt;unit_test -->
<g id="edge20" class="edge">
<title>symbolic/operation&#45;&gt;unit_test</title>
<path fill="none" stroke="black" d="M610.39,-652.18C702.9,-629.34 864,-572.18 864,-451 864,-451 864,-451 864,-377 864,-301.87 811.82,-225.27 781.74,-187.36"/>
<polygon fill="black" stroke="black" points="784.33,-185.01 775.32,-179.44 778.89,-189.41 784.33,-185.01"/>
</g>
<!-- differentiate&#45;&gt;symbolic -->
<g id="edge62" class="edge">
<title>differentiate&#45;&gt;symbolic</title>
<path fill="none" stroke="black" d="M324.76,-363C398.3,-336.42 557.63,-278.85 635.03,-250.89"/>
<polygon fill="black" stroke="black" points="636.28,-254.16 644.5,-247.47 633.9,-247.57 636.28,-254.16"/>
</g>
<!-- differentiate&#45;&gt;scalar -->
<g id="edge63" class="edge">
<title>differentiate&#45;&gt;scalar</title>
<path fill="none" stroke="black" d="M293.69,-359.85C310.45,-322.5 350.32,-233.63 370.24,-189.21"/>
<polygon fill="black" stroke="black" points="373.5,-190.49 374.4,-179.94 367.12,-187.63 373.5,-190.49"/>
</g>
<!-- geometry/algebra -->
<g id="node15" class="node">
<title>geometry/algebra</title>
<ellipse fill="none" stroke="black" cx="420" cy="-738" rx="92.88" ry="18"/>
<text text-anchor="middle" x="420" y="-734.3" font-family="Times,serif" font-size="14.00">geometry/algebra</text>
</g>
<!-- geometry/algebra&#45;&gt;group -->
<g id="edge30" class="edge">
<title>geometry/algebra&#45;&gt;group</title>
<path fill="none" stroke="black" d="M496.63,-727.81C555.92,-719.25 631.7,-704.69 655,-684 711.76,-633.6 712,-598.91 712,-523 712,-523 712,-523 712,-449 712,-407.41 696.6,-361.22 685.4,-333.14"/>
<polygon fill="black" stroke="black" points="688.55,-331.58 681.51,-323.66 682.07,-334.24 688.55,-331.58"/>
</g>
<!-- geometry/algebra&#45;&gt;symbolic -->
<g id="edge37" class="edge">
<title>geometry/algebra&#45;&gt;symbolic</title>
<path fill="none" stroke="black" d="M498.08,-728.22C565.22,-719.46 655.87,-704.38 686,-684 786.08,-616.33 826,-571.81 826,-451 826,-451 826,-451 826,-377 826,-317.66 763.27,-275.25 719.77,-252.98"/>
<polygon fill="black" stroke="black" points="721.05,-249.71 710.54,-248.4 717.94,-255.98 721.05,-249.71"/>
</g>
<!-- geometry/algebra&#45;&gt;scalar -->
<g id="edge36" class="edge">
<title>geometry/algebra&#45;&gt;scalar</title>
<path fill="none" stroke="black" d="M379.16,-721.75C358.95,-712.84 335.07,-700.15 317,-684 195.59,-575.48 114,-541.84 114,-379 114,-379 114,-379 114,-305 114,-206.36 257.52,-176.04 334.51,-166.88"/>
<polygon fill="black" stroke="black" points="334.9,-170.35 344.45,-165.77 334.13,-163.4 334.9,-170.35"/>
</g>
<!-- geometry/algebra&#45;&gt;multiplication -->
<g id="edge29" class="edge">
<title>geometry/algebra&#45;&gt;multiplication</title>
<path fill="none" stroke="black" d="M422.81,-719.85C428.87,-682.75 443.26,-594.81 450.57,-550.1"/>
<polygon fill="black" stroke="black" points="454.02,-550.67 452.18,-540.23 447.11,-549.54 454.02,-550.67"/>
</g>
<!-- geometry/algebra&#45;&gt;addition -->
<g id="edge34" class="edge">
<title>geometry/algebra&#45;&gt;addition</title>
<path fill="none" stroke="black" d="M408.49,-719.91C382.56,-679.1 325.31,-574.13 371,-504 385.82,-481.26 412.85,-468.2 437.51,-460.75"/>
<polygon fill="black" stroke="black" points="438.47,-464.11 447.17,-458.06 436.59,-457.37 438.47,-464.11"/>
</g>
<!-- geometry/algebra&#45;&gt;hana -->
<g id="edge35" class="edge">
<title>geometry/algebra&#45;&gt;hana</title>
<path fill="none" stroke="black" d="M510.84,-734.07C677.69,-726.19 1016,-697.58 1016,-595 1016,-595 1016,-595 1016,-233 1016,-169.07 961.23,-170.39 903,-144 822.73,-107.62 718.93,-96.21 661.35,-92.64"/>
<polygon fill="black" stroke="black" points="661.33,-89.13 651.15,-92.05 660.93,-96.12 661.33,-89.13"/>
</g>
<!-- geometry/algebra&#45;&gt;symbolic/operation -->
<g id="edge31" class="edge">
<title>geometry/algebra&#45;&gt;symbolic/operation</title>
<path fill="none" stroke="black" d="M449.46,-720.76C466.96,-711.12 489.37,-698.77 508.29,-688.34"/>
<polygon fill="black" stroke="black" points="510.2,-691.28 517.26,-683.39 506.82,-685.15 510.2,-691.28"/>
</g>
<!-- geometry/algebra&#45;&gt;abs -->
<g id="edge32" class="edge">
<title>geometry/algebra&#45;&gt;abs</title>
<path fill="none" stroke="black" d="M378.07,-721.84C361.23,-713.44 343.58,-701.15 334,-684 296.69,-617.19 323.09,-522.25 339.54,-476.97"/>
<polygon fill="black" stroke="black" points="342.82,-478.18 343.07,-467.58 336.27,-475.71 342.82,-478.18"/>
</g>
<!-- geometry/object -->
<g id="node17" class="node">
<title>geometry/object</title>
<ellipse fill="none" stroke="black" cx="120" cy="-666" rx="86.38" ry="18"/>
<text text-anchor="middle" x="120" y="-662.3" font-family="Times,serif" font-size="14.00">geometry/object</text>
</g>
<!-- geometry/algebra&#45;&gt;geometry/object -->
<g id="edge33" class="edge">
<title>geometry/algebra&#45;&gt;geometry/object</title>
<path fill="none" stroke="black" d="M359.97,-724.24C308.4,-712.61 234.42,-695.38 182.23,-682.86"/>
<polygon fill="black" stroke="black" points="182.96,-679.44 172.42,-680.51 181.33,-686.25 182.96,-679.44"/>
</g>
<!-- geometry/object&#45;&gt;symbolic -->
<g id="edge53" class="edge">
<title>geometry/object&#45;&gt;symbolic</title>
<path fill="none" stroke="black" d="M119.24,-647.95C117.92,-595.87 121.6,-437.69 209,-360 325.41,-256.52 518.1,-237.27 616.69,-234.59"/>
<polygon fill="black" stroke="black" points="616.88,-238.08 626.8,-234.36 616.72,-231.08 616.88,-238.08"/>
</g>
<!-- geometry/object&#45;&gt;scalar -->
<g id="edge54" class="edge">
<title>geometry/object&#45;&gt;scalar</title>
<path fill="none" stroke="black" d="M111.1,-648.04C98.24,-621.93 76,-569.97 76,-523 76,-523 76,-523 76,-305 76,-264.03 69.93,-243.82 100,-216 133.41,-185.08 262.85,-171.3 334.17,-165.94"/>
<polygon fill="black" stroke="black" points="334.53,-169.42 344.25,-165.21 334.03,-162.44 334.53,-169.42"/>
</g>
<!-- geometry/object&#45;&gt;hana -->
<g id="edge57" class="edge">
<title>geometry/object&#45;&gt;hana</title>
<path fill="none" stroke="black" d="M102.21,-648.02C78.09,-623.08 38,-573.96 38,-523 38,-523 38,-523 38,-233 38,-122.6 439.45,-97.61 574.37,-92.33"/>
<polygon fill="black" stroke="black" points="574.87,-95.81 584.73,-91.94 574.61,-88.82 574.87,-95.81"/>
</g>
<!-- geometry/object&#45;&gt;differentiate -->
<g id="edge55" class="edge">
<title>geometry/object&#45;&gt;differentiate</title>
<path fill="none" stroke="black" d="M129.89,-647.97C157.85,-599.78 237.66,-462.28 271.04,-404.78"/>
<polygon fill="black" stroke="black" points="274.17,-406.35 276.16,-395.94 268.12,-402.84 274.17,-406.35"/>
</g>
<!-- geometry/object&#45;&gt;geometry/algebra -->
<g id="edge56" class="edge">
<title>geometry/object&#45;&gt;geometry/algebra</title>
<path fill="none" stroke="black" d="M178.29,-679.37C229.57,-690.92 303.95,-708.24 356.67,-720.87"/>
<polygon fill="black" stroke="black" points="356.04,-724.32 366.58,-723.25 357.67,-717.51 356.04,-724.32"/>
</g>
<!-- geometry/frame -->
<g id="node18" class="node">
<title>geometry/frame</title>
<ellipse fill="none" stroke="black" cx="276" cy="-954" rx="85.29" ry="18"/>
<text text-anchor="middle" x="276" y="-950.3" font-family="Times,serif" font-size="14.00">geometry/frame</text>
</g>
<!-- geometry/frame&#45;&gt;hana -->
<g id="edge42" class="edge">
<title>geometry/frame&#45;&gt;hana</title>
<path fill="none" stroke="black" d="M199.12,-946.08C117.45,-934 0,-900.99 0,-811 0,-811 0,-811 0,-233 0,-181.56 28.54,-168.08 74,-144 160.6,-98.13 461.6,-91.78 574.64,-91.03"/>
<polygon fill="black" stroke="black" points="574.69,-94.53 584.67,-90.98 574.65,-87.53 574.69,-94.53"/>
</g>
<!-- geometry/frame&#45;&gt;geometry/algebra -->
<g id="edge38" class="edge">
<title>geometry/frame&#45;&gt;geometry/algebra</title>
<path fill="none" stroke="black" d="M276.78,-935.94C278.26,-917.26 282.55,-886.9 295,-864 317.94,-821.79 359.57,-784.46 388.45,-761.83"/>
<polygon fill="black" stroke="black" points="390.8,-764.43 396.6,-755.56 386.54,-758.88 390.8,-764.43"/>
</g>
<!-- geometry/frame&#45;&gt;geometry/object -->
<g id="edge39" class="edge">
<title>geometry/frame&#45;&gt;geometry/object</title>
<path fill="none" stroke="black" d="M266.71,-935.97C240.43,-887.78 165.43,-750.28 134.06,-692.78"/>
<polygon fill="black" stroke="black" points="137.1,-691.05 129.24,-683.94 130.96,-694.4 137.1,-691.05"/>
</g>
<!-- geometry/point_transform -->
<g id="node19" class="node">
<title>geometry/point_transform</title>
<ellipse fill="none" stroke="black" cx="437" cy="-882" rx="132.68" ry="18"/>
<text text-anchor="middle" x="437" y="-878.3" font-family="Times,serif" font-size="14.00">geometry/point_transform</text>
</g>
<!-- geometry/frame&#45;&gt;geometry/point_transform -->
<g id="edge40" class="edge">
<title>geometry/frame&#45;&gt;geometry/point_transform</title>
<path fill="none" stroke="black" d="M311.73,-937.46C334.81,-927.43 365.1,-914.26 390.11,-903.39"/>
<polygon fill="black" stroke="black" points="391.63,-906.54 399.41,-899.34 388.84,-900.12 391.63,-906.54"/>
</g>
<!-- geometry/vector_transform -->
<g id="node20" class="node">
<title>geometry/vector_transform</title>
<ellipse fill="none" stroke="black" cx="638" cy="-810" rx="137.58" ry="18"/>
<text text-anchor="middle" x="638" y="-806.3" font-family="Times,serif" font-size="14.00">geometry/vector_transform</text>
</g>
<!-- geometry/frame&#45;&gt;geometry/vector_transform -->
<g id="edge41" class="edge">
<title>geometry/frame&#45;&gt;geometry/vector_transform</title>
<path fill="none" stroke="black" d="M353.56,-946.42C430.73,-938.66 542.74,-923.72 579,-900 601.8,-885.09 617.86,-857.97 627.41,-837.57"/>
<polygon fill="black" stroke="black" points="630.72,-838.74 631.58,-828.18 624.33,-835.9 630.72,-838.74"/>
</g>
<!-- geometry/point_transform&#45;&gt;composition -->
<g id="edge45" class="edge">
<title>geometry/point_transform&#45;&gt;composition</title>
<path fill="none" stroke="black" d="M559.09,-874.98C644.94,-868.45 750.41,-855.07 785,-828 804.19,-812.98 813.52,-786.25 818,-766"/>
<polygon fill="black" stroke="black" points="821.45,-766.57 819.92,-756.09 814.58,-765.24 821.45,-766.57"/>
</g>
<!-- geometry/point_transform&#45;&gt;geometry/algebra -->
<g id="edge44" class="edge">
<title>geometry/point_transform&#45;&gt;geometry/algebra</title>
<path fill="none" stroke="black" d="M434.95,-863.87C432.05,-839.67 426.73,-795.21 423.28,-766.39"/>
<polygon fill="black" stroke="black" points="426.72,-765.7 422.06,-756.19 419.77,-766.53 426.72,-765.7"/>
</g>
<!-- geometry/point_transform&#45;&gt;geometry/object -->
<g id="edge43" class="edge">
<title>geometry/point_transform&#45;&gt;geometry/object</title>
<path fill="none" stroke="black" d="M408.14,-864.26C368.59,-841.05 295.64,-797.28 236,-756 205.33,-734.77 171.65,-708.59 148.52,-690.13"/>
<polygon fill="black" stroke="black" points="150.49,-687.23 140.5,-683.71 146.11,-692.69 150.49,-687.23"/>
</g>
<!-- geometry/point_transform&#45;&gt;geometry/vector_transform -->
<g id="edge46" class="edge">
<title>geometry/point_transform&#45;&gt;geometry/vector_transform</title>
<path fill="none" stroke="black" d="M482.86,-865.03C512.47,-854.72 551.18,-841.24 582.52,-830.32"/>
<polygon fill="black" stroke="black" points="583.7,-833.62 591.99,-827.02 581.39,-827.01 583.7,-833.62"/>
</g>
<!-- geometry/vector_transform&#45;&gt;symbolic -->
<g id="edge51" class="edge">
<title>geometry/vector_transform&#45;&gt;symbolic</title>
<path fill="none" stroke="black" d="M739.24,-797.78C801.26,-789.14 873.31,-775.38 898,-756 932.41,-728.99 940,-710.74 940,-667 940,-667 940,-667 940,-377 940,-285.79 815.5,-252.84 738.47,-241.17"/>
<polygon fill="black" stroke="black" points="738.79,-237.68 728.4,-239.73 737.8,-244.61 738.79,-237.68"/>
</g>
<!-- geometry/vector_transform&#45;&gt;eval -->
<g id="edge50" class="edge">
<title>geometry/vector_transform&#45;&gt;eval</title>
<path fill="none" stroke="black" d="M770.43,-804.83C865.89,-793.9 978,-761.03 978,-667 978,-667 978,-667 978,-305 978,-250.59 926.47,-205.15 892.7,-181.22"/>
<polygon fill="black" stroke="black" points="894.34,-178.1 884.12,-175.33 890.38,-183.87 894.34,-178.1"/>
</g>
<!-- geometry/vector_transform&#45;&gt;composition -->
<g id="edge52" class="edge">
<title>geometry/vector_transform&#45;&gt;composition</title>
<path fill="none" stroke="black" d="M680.68,-792.76C709,-781.99 746.19,-767.84 775.31,-756.76"/>
<polygon fill="black" stroke="black" points="776.75,-759.96 784.85,-753.13 774.26,-753.42 776.75,-759.96"/>
</g>
<!-- geometry/vector_transform&#45;&gt;multiplication -->
<g id="edge49" class="edge">
<title>geometry/vector_transform&#45;&gt;multiplication</title>
<path fill="none" stroke="black" d="M645.2,-791.72C656.72,-761.3 675.99,-696.8 655,-648 630.12,-590.17 562.99,-556.71 513.33,-539.22"/>
<polygon fill="black" stroke="black" points="514.24,-535.83 503.64,-535.93 511.99,-542.46 514.24,-535.83"/>
</g>
<!-- geometry/vector_transform&#45;&gt;geometry/algebra -->
<g id="edge48" class="edge">
<title>geometry/vector_transform&#45;&gt;geometry/algebra</title>
<path fill="none" stroke="black" d="M588.53,-793.12C554.89,-782.31 510.33,-768 475.48,-756.81"/>
<polygon fill="black" stroke="black" points="476.51,-753.47 465.92,-753.75 474.37,-760.14 476.51,-753.47"/>
</g>
<!-- geometry/vector_transform&#45;&gt;geometry/object -->
<g id="edge47" class="edge">
<title>geometry/vector_transform&#45;&gt;geometry/object</title>
<path fill="none" stroke="black" d="M531.95,-798.41C468.88,-790.4 387.81,-777.08 318,-756 310.05,-753.6 219.14,-712.29 163.31,-686.81"/>
<polygon fill="black" stroke="black" points="164.55,-683.53 154,-682.56 161.64,-689.89 164.55,-683.53"/>
</g>
</g>
</svg>
