<?xml version="1.0" encoding="UTF-8" standalone="no"?>
<!DOCTYPE svg PUBLIC "-//W3C//DTD SVG 1.1//EN"
 "http://www.w3.org/Graphics/SVG/1.1/DTD/svg11.dtd">
<!-- Generated by graphviz version 2.40.1 (20161225.0304)
 -->
<!-- Title: dependency_graph Pages: 1 -->
<svg width="745pt" height="764pt"
 viewBox="0.00 0.00 745.09 764.00" xmlns="http://www.w3.org/2000/svg" xmlns:xlink="http://www.w3.org/1999/xlink">
<g id="graph0" class="graph" transform="scale(1 1) rotate(0) translate(4 760)">
<title>dependency_graph</title>
<polygon fill="#ffffff" stroke="transparent" points="-4,4 -4,-760 741.0923,-760 741.0923,4 -4,4"/>
<!-- group -->
<g id="node1" class="node">
<title>group</title>
<ellipse fill="none" stroke="#000000" cx="407.0923" cy="-162" rx="38.1938" ry="18"/>
<text text-anchor="middle" x="407.0923" y="-158.3" font-family="Times,serif" font-size="14.00" fill="#000000">group</text>
</g>
<!-- symbolic -->
<g id="node2" class="node">
<title>symbolic</title>
<ellipse fill="none" stroke="#000000" cx="223.0923" cy="-90" rx="51.9908" ry="18"/>
<text text-anchor="middle" x="223.0923" y="-86.3" font-family="Times,serif" font-size="14.00" fill="#000000">symbolic</text>
</g>
<!-- group&#45;&gt;symbolic -->
<g id="edge1" class="edge">
<title>group&#45;&gt;symbolic</title>
<path fill="none" stroke="#000000" d="M377.5295,-150.432C347.7574,-138.782 301.4679,-120.6687 267.325,-107.3085"/>
<polygon fill="#000000" stroke="#000000" points="268.1845,-103.8864 257.5967,-103.5017 265.6337,-110.4051 268.1845,-103.8864"/>
</g>
<!-- eval -->
<g id="node3" class="node">
<title>eval</title>
<ellipse fill="none" stroke="#000000" cx="465.0923" cy="-90" rx="29.795" ry="18"/>
<text text-anchor="middle" x="465.0923" y="-86.3" font-family="Times,serif" font-size="14.00" fill="#000000">eval</text>
</g>
<!-- group&#45;&gt;eval -->
<g id="edge2" class="edge">
<title>group&#45;&gt;eval</title>
<path fill="none" stroke="#000000" d="M420.8375,-144.937C428.1653,-135.8403 437.3098,-124.4886 445.381,-114.4691"/>
<polygon fill="#000000" stroke="#000000" points="448.2973,-116.4281 451.845,-106.4449 442.846,-112.0368 448.2973,-116.4281"/>
</g>
<!-- name -->
<g id="node4" class="node">
<title>name</title>
<ellipse fill="none" stroke="#000000" cx="223.0923" cy="-18" rx="36.2938" ry="18"/>
<text text-anchor="middle" x="223.0923" y="-14.3" font-family="Times,serif" font-size="14.00" fill="#000000">name</text>
</g>
<!-- group&#45;&gt;name -->
<g id="edge3" class="edge">
<title>group&#45;&gt;name</title>
<path fill="none" stroke="#000000" d="M387.0508,-146.3154C353.9722,-120.4278 287.8974,-68.7171 250.5161,-39.4621"/>
<polygon fill="#000000" stroke="#000000" points="252.5858,-36.6375 242.5536,-33.2306 248.2716,-42.15 252.5858,-36.6375"/>
</g>
<!-- scalar -->
<g id="node5" class="node">
<title>scalar</title>
<ellipse fill="none" stroke="#000000" cx="541.0923" cy="-18" rx="38.9931" ry="18"/>
<text text-anchor="middle" x="541.0923" y="-14.3" font-family="Times,serif" font-size="14.00" fill="#000000">scalar</text>
</g>
<!-- group&#45;&gt;scalar -->
<g id="edge4" class="edge">
<title>group&#45;&gt;scalar</title>
<path fill="none" stroke="#000000" d="M406.3858,-143.7979C406.5676,-124.0719 409.7312,-92.6546 426.0923,-72 443.4258,-50.1178 471.7284,-36.6736 495.9175,-28.6725"/>
<polygon fill="#000000" stroke="#000000" points="497.1211,-31.9639 505.642,-25.6675 495.0544,-25.2759 497.1211,-31.9639"/>
</g>
<!-- symbolic&#45;&gt;name -->
<g id="edge16" class="edge">
<title>symbolic&#45;&gt;name</title>
<path fill="none" stroke="#000000" d="M223.0923,-71.8314C223.0923,-64.131 223.0923,-54.9743 223.0923,-46.4166"/>
<polygon fill="#000000" stroke="#000000" points="226.5924,-46.4132 223.0923,-36.4133 219.5924,-46.4133 226.5924,-46.4132"/>
</g>
<!-- symbolic&#45;&gt;scalar -->
<g id="edge8" class="edge">
<title>symbolic&#45;&gt;scalar</title>
<path fill="none" stroke="#000000" d="M266.642,-80.1397C326.7811,-66.5233 434.7288,-42.0823 495.7839,-28.2585"/>
<polygon fill="#000000" stroke="#000000" points="496.9109,-31.592 505.8911,-25.9701 495.365,-24.7648 496.9109,-31.592"/>
</g>
<!-- abs -->
<g id="node9" class="node">
<title>abs</title>
<ellipse fill="none" stroke="#000000" cx="124.0923" cy="-18" rx="27" ry="18"/>
<text text-anchor="middle" x="124.0923" y="-14.3" font-family="Times,serif" font-size="14.00" fill="#000000">abs</text>
</g>
<!-- symbolic&#45;&gt;abs -->
<g id="edge7" class="edge">
<title>symbolic&#45;&gt;abs</title>
<path fill="none" stroke="#000000" d="M200.6276,-73.6621C185.802,-62.8798 166.3089,-48.703 150.706,-37.3554"/>
<polygon fill="#000000" stroke="#000000" points="152.6382,-34.433 142.4923,-31.3818 148.521,-40.0941 152.6382,-34.433"/>
</g>
<!-- unit_test -->
<g id="node11" class="node">
<title>unit_test</title>
<ellipse fill="none" stroke="#000000" cx="335.0923" cy="-18" rx="51.9908" ry="18"/>
<text text-anchor="middle" x="335.0923" y="-14.3" font-family="Times,serif" font-size="14.00" fill="#000000">unit_test</text>
</g>
<!-- symbolic&#45;&gt;unit_test -->
<g id="edge17" class="edge">
<title>symbolic&#45;&gt;unit_test</title>
<path fill="none" stroke="#000000" d="M247.9487,-74.0209C263.754,-63.8603 284.4123,-50.58 301.648,-39.4999"/>
<polygon fill="#000000" stroke="#000000" points="303.7862,-42.2862 310.3053,-33.9345 300.0009,-36.398 303.7862,-42.2862"/>
</g>
<!-- vector -->
<g id="node6" class="node">
<title>vector</title>
<ellipse fill="none" stroke="#000000" cx="498.0923" cy="-378" rx="40.0939" ry="18"/>
<text text-anchor="middle" x="498.0923" y="-374.3" font-family="Times,serif" font-size="14.00" fill="#000000">vector</text>
</g>
<!-- multiplication -->
<g id="node7" class="node">
<title>multiplication</title>
<ellipse fill="none" stroke="#000000" cx="482.0923" cy="-306" rx="75.2868" ry="18"/>
<text text-anchor="middle" x="482.0923" y="-302.3" font-family="Times,serif" font-size="14.00" fill="#000000">multiplication</text>
</g>
<!-- vector&#45;&gt;multiplication -->
<g id="edge5" class="edge">
<title>vector&#45;&gt;multiplication</title>
<path fill="none" stroke="#000000" d="M494.0548,-359.8314C492.3436,-352.131 490.3088,-342.9743 488.4071,-334.4166"/>
<polygon fill="#000000" stroke="#000000" points="491.7701,-333.4159 486.1841,-324.4133 484.9368,-334.9344 491.7701,-333.4159"/>
</g>
<!-- addition -->
<g id="node8" class="node">
<title>addition</title>
<ellipse fill="none" stroke="#000000" cx="541.0923" cy="-234" rx="48.9926" ry="18"/>
<text text-anchor="middle" x="541.0923" y="-230.3" font-family="Times,serif" font-size="14.00" fill="#000000">addition</text>
</g>
<!-- vector&#45;&gt;addition -->
<g id="edge6" class="edge">
<title>vector&#45;&gt;addition</title>
<path fill="none" stroke="#000000" d="M525.1027,-364.4585C540.1687,-355.2976 557.571,-341.6482 566.0923,-324 575.9245,-303.6368 567.6283,-278.7548 558.0355,-260.3184"/>
<polygon fill="#000000" stroke="#000000" points="561.082,-258.5952 553.1435,-251.5787 554.9738,-262.0142 561.082,-258.5952"/>
</g>
<!-- multiplication&#45;&gt;group -->
<g id="edge36" class="edge">
<title>multiplication&#45;&gt;group</title>
<path fill="none" stroke="#000000" d="M472.7451,-288.0535C459.7622,-263.1263 436.1698,-217.8289 421.084,-188.8641"/>
<polygon fill="#000000" stroke="#000000" points="424.0452,-186.9727 416.3216,-179.7204 417.8368,-190.2063 424.0452,-186.9727"/>
</g>
<!-- multiplication&#45;&gt;addition -->
<g id="edge37" class="edge">
<title>multiplication&#45;&gt;addition</title>
<path fill="none" stroke="#000000" d="M496.6765,-288.2022C503.8026,-279.506 512.5045,-268.8867 520.3114,-259.3598"/>
<polygon fill="#000000" stroke="#000000" points="523.2483,-261.2978 526.8794,-251.3446 517.8339,-256.861 523.2483,-261.2978"/>
</g>
<!-- addition&#45;&gt;group -->
<g id="edge18" class="edge">
<title>addition&#45;&gt;group</title>
<path fill="none" stroke="#000000" d="M513.3274,-219.0816C492.4408,-207.8589 463.6997,-192.416 441.3785,-180.4224"/>
<polygon fill="#000000" stroke="#000000" points="443.0208,-177.3317 432.5553,-175.6816 439.7076,-183.498 443.0208,-177.3317"/>
</g>
<!-- addition&#45;&gt;scalar -->
<g id="edge19" class="edge">
<title>addition&#45;&gt;scalar</title>
<path fill="none" stroke="#000000" d="M541.0923,-215.9555C541.0923,-178.3938 541.0923,-91.5541 541.0923,-46.4103"/>
<polygon fill="#000000" stroke="#000000" points="544.5924,-46.145 541.0923,-36.1451 537.5924,-46.1451 544.5924,-46.145"/>
</g>
<!-- symbolic/operation -->
<g id="node10" class="node">
<title>symbolic/operation</title>
<ellipse fill="none" stroke="#000000" cx="430.0923" cy="-450" rx="99.3824" ry="18"/>
<text text-anchor="middle" x="430.0923" y="-446.3" font-family="Times,serif" font-size="14.00" fill="#000000">symbolic/operation</text>
</g>
<!-- symbolic/operation&#45;&gt;group -->
<g id="edge9" class="edge">
<title>symbolic/operation&#45;&gt;group</title>
<path fill="none" stroke="#000000" d="M423.9801,-431.9105C416.146,-407.6807 402.9912,-363.1915 398.0923,-324 392.2537,-277.2915 397.8726,-222.5331 402.4787,-190.1372"/>
<polygon fill="#000000" stroke="#000000" points="405.9693,-190.4592 403.9839,-180.052 399.046,-189.4258 405.9693,-190.4592"/>
</g>
<!-- symbolic/operation&#45;&gt;symbolic -->
<g id="edge12" class="edge">
<title>symbolic/operation&#45;&gt;symbolic</title>
<path fill="none" stroke="#000000" d="M385.8753,-433.6739C337.0003,-412.4296 265.0923,-370.2552 265.0923,-306 265.0923,-306 265.0923,-306 265.0923,-234 265.0923,-192.0688 248.4771,-145.918 236.1475,-117.4435"/>
<polygon fill="#000000" stroke="#000000" points="239.2698,-115.8513 231.9994,-108.1447 232.8771,-118.7032 239.2698,-115.8513"/>
</g>
<!-- symbolic/operation&#45;&gt;scalar -->
<g id="edge15" class="edge">
<title>symbolic/operation&#45;&gt;scalar</title>
<path fill="none" stroke="#000000" d="M500.0268,-437.1368C568.016,-420.1177 661.0923,-382.7947 661.0923,-306 661.0923,-306 661.0923,-306 661.0923,-162 661.0923,-107.3994 609.5471,-62.5146 574.0217,-38.0635"/>
<polygon fill="#000000" stroke="#000000" points="575.6368,-34.9335 565.3761,-32.2939 571.7511,-40.7561 575.6368,-34.9335"/>
</g>
<!-- symbolic/operation&#45;&gt;vector -->
<g id="edge13" class="edge">
<title>symbolic/operation&#45;&gt;vector</title>
<path fill="none" stroke="#000000" d="M446.9013,-432.2022C455.4665,-423.1332 466.007,-411.9726 475.2927,-402.1407"/>
<polygon fill="#000000" stroke="#000000" points="478.0873,-404.2792 482.409,-394.6058 472.9982,-399.4728 478.0873,-404.2792"/>
</g>
<!-- symbolic/operation&#45;&gt;multiplication -->
<g id="edge11" class="edge">
<title>symbolic/operation&#45;&gt;multiplication</title>
<path fill="none" stroke="#000000" d="M432.0767,-431.8877C434.5295,-413.33 439.5962,-383.8928 449.0923,-360 452.7876,-350.7024 458.0295,-341.1866 463.2501,-332.7844"/>
<polygon fill="#000000" stroke="#000000" points="466.333,-334.4628 468.8326,-324.1671 460.458,-330.6569 466.333,-334.4628"/>
</g>
<!-- symbolic/operation&#45;&gt;addition -->
<g id="edge10" class="edge">
<title>symbolic/operation&#45;&gt;addition</title>
<path fill="none" stroke="#000000" d="M482.5183,-434.612C504.5667,-426.067 529.198,-413.5387 547.0923,-396 583.1274,-360.6808 598.1895,-335.8211 582.0923,-288 578.5635,-277.5169 572.1011,-267.4539 565.3342,-258.9152"/>
<polygon fill="#000000" stroke="#000000" points="567.9676,-256.6089 558.8388,-251.2316 562.6218,-261.1281 567.9676,-256.6089"/>
</g>
<!-- symbolic/operation&#45;&gt;unit_test -->
<g id="edge14" class="edge">
<title>symbolic/operation&#45;&gt;unit_test</title>
<path fill="none" stroke="#000000" d="M409.8968,-432.1856C383.6381,-406.9439 341.0923,-358.0195 341.0923,-306 341.0923,-306 341.0923,-306 341.0923,-162 341.0923,-121.8412 338.734,-75.4372 336.9744,-46.4031"/>
<polygon fill="#000000" stroke="#000000" points="340.4522,-45.9376 336.3355,-36.1753 333.4658,-46.3741 340.4522,-45.9376"/>
</g>
<!-- geometry/algebra -->
<g id="node12" class="node">
<title>geometry/algebra</title>
<ellipse fill="none" stroke="#000000" cx="317.0923" cy="-522" rx="92.8835" ry="18"/>
<text text-anchor="middle" x="317.0923" y="-518.3" font-family="Times,serif" font-size="14.00" fill="#000000">geometry/algebra</text>
</g>
<!-- geometry/algebra&#45;&gt;symbolic -->
<g id="edge24" class="edge">
<title>geometry/algebra&#45;&gt;symbolic</title>
<path fill="none" stroke="#000000" d="M297.3728,-504.2117C261.4678,-469.7611 189.0923,-389.9105 189.0923,-306 189.0923,-306 189.0923,-306 189.0923,-234 189.0923,-192.5911 202.574,-146.2334 212.5586,-117.579"/>
<polygon fill="#000000" stroke="#000000" points="215.9612,-118.4595 216.0475,-107.865 209.3732,-116.0933 215.9612,-118.4595"/>
</g>
<!-- geometry/algebra&#45;&gt;scalar -->
<g id="edge23" class="edge">
<title>geometry/algebra&#45;&gt;scalar</title>
<path fill="none" stroke="#000000" d="M403.8618,-515.4891C526.847,-501.0001 737.0923,-454.5125 737.0923,-306 737.0923,-306 737.0923,-306 737.0923,-162 737.0923,-87.1591 643.1352,-46.9233 585.3267,-29.2505"/>
<polygon fill="#000000" stroke="#000000" points="586.2635,-25.8778 575.682,-26.4075 584.2843,-32.5922 586.2635,-25.8778"/>
</g>
<!-- geometry/algebra&#45;&gt;multiplication -->
<g id="edge22" class="edge">
<title>geometry/algebra&#45;&gt;multiplication</title>
<path fill="none" stroke="#000000" d="M313.9324,-503.9567C311.5134,-484.9291 310.322,-454.6301 322.0923,-432 347.3161,-383.5036 400.4298,-347.628 438.5465,-326.8172"/>
<polygon fill="#000000" stroke="#000000" points="440.2194,-329.8917 447.4026,-322.1037 436.9306,-323.7124 440.2194,-329.8917"/>
</g>
<!-- geometry/algebra&#45;&gt;abs -->
<g id="edge21" class="edge">
<title>geometry/algebra&#45;&gt;abs</title>
<path fill="none" stroke="#000000" d="M282.239,-505.294C265.5596,-496.0336 246.2008,-483.2902 232.0923,-468 177.5033,-408.8389 151.0923,-386.4984 151.0923,-306 151.0923,-306 151.0923,-306 151.0923,-234 151.0923,-166.0042 137.7555,-86.8916 129.8286,-45.8753"/>
<polygon fill="#000000" stroke="#000000" points="133.2157,-44.9607 127.8465,-35.8272 126.3481,-46.3155 133.2157,-44.9607"/>
</g>
<!-- geometry/algebra&#45;&gt;symbolic/operation -->
<g id="edge20" class="edge">
<title>geometry/algebra&#45;&gt;symbolic/operation</title>
<path fill="none" stroke="#000000" d="M344.1586,-504.7542C359.1433,-495.2064 377.9604,-483.2168 394.1634,-472.8927"/>
<polygon fill="#000000" stroke="#000000" points="396.3024,-475.68 402.8552,-467.3546 392.5408,-469.7765 396.3024,-475.68"/>
</g>
<!-- geometry/point_transform -->
<g id="node13" class="node">
<title>geometry/point_transform</title>
<ellipse fill="none" stroke="#000000" cx="208.0923" cy="-738" rx="133.4768" ry="18"/>
<text text-anchor="middle" x="208.0923" y="-734.3" font-family="Times,serif" font-size="14.00" fill="#000000">geometry/point_transform</text>
</g>
<!-- geometry/point_transform&#45;&gt;geometry/algebra -->
<g id="edge26" class="edge">
<title>geometry/point_transform&#45;&gt;geometry/algebra</title>
<path fill="none" stroke="#000000" d="M311.4335,-726.5946C365.4081,-718.2806 423.6027,-704.7684 440.0923,-684 479.0354,-634.9516 404.9875,-576.1118 355.8138,-544.5876"/>
<polygon fill="#000000" stroke="#000000" points="357.5852,-541.5672 347.2552,-539.2128 353.8624,-547.4951 357.5852,-541.5672"/>
</g>
<!-- geometry/object -->
<g id="node14" class="node">
<title>geometry/object</title>
<ellipse fill="none" stroke="#000000" cx="87.0923" cy="-594" rx="87.1846" ry="18"/>
<text text-anchor="middle" x="87.0923" y="-590.3" font-family="Times,serif" font-size="14.00" fill="#000000">geometry/object</text>
</g>
<!-- geometry/point_transform&#45;&gt;geometry/object -->
<g id="edge25" class="edge">
<title>geometry/point_transform&#45;&gt;geometry/object</title>
<path fill="none" stroke="#000000" d="M178.2786,-720.3598C163.9833,-710.8698 147.3477,-698.2028 135.0923,-684 118.9357,-665.2763 106.122,-640.1968 97.8121,-621.2685"/>
<polygon fill="#000000" stroke="#000000" points="101.0076,-619.8389 93.8832,-611.9971 94.5624,-622.5702 101.0076,-619.8389"/>
</g>
<!-- geometry -->
<g id="node15" class="node">
<title>geometry</title>
<ellipse fill="none" stroke="#000000" cx="247.0923" cy="-594" rx="55.4913" ry="18"/>
<text text-anchor="middle" x="247.0923" y="-590.3" font-family="Times,serif" font-size="14.00" fill="#000000">geometry</text>
</g>
<!-- geometry/point_transform&#45;&gt;geometry -->
<g id="edge27" class="edge">
<title>geometry/point_transform&#45;&gt;geometry</title>
<path fill="none" stroke="#000000" d="M177.3093,-720.461C164.5311,-711.3821 151.0759,-699.0298 144.0923,-684 137.3501,-669.4899 135.8118,-661.6907 144.0923,-648 155.2271,-629.59 174.939,-617.1499 194.1581,-608.8997"/>
<polygon fill="#000000" stroke="#000000" points="195.5153,-612.1267 203.5135,-605.1784 192.928,-605.6223 195.5153,-612.1267"/>
</g>
<!-- geometry/vector_transform -->
<g id="node16" class="node">
<title>geometry/vector_transform</title>
<ellipse fill="none" stroke="#000000" cx="292.0923" cy="-666" rx="139.1754" ry="18"/>
<text text-anchor="middle" x="292.0923" y="-662.3" font-family="Times,serif" font-size="14.00" fill="#000000">geometry/vector_transform</text>
</g>
<!-- geometry/point_transform&#45;&gt;geometry/vector_transform -->
<g id="edge28" class="edge">
<title>geometry/point_transform&#45;&gt;geometry/vector_transform</title>
<path fill="none" stroke="#000000" d="M228.8563,-720.2022C239.3565,-711.2021 252.2596,-700.1423 263.6662,-690.3652"/>
<polygon fill="#000000" stroke="#000000" points="265.9612,-693.0079 271.276,-683.8425 261.4056,-687.6931 265.9612,-693.0079"/>
</g>
<!-- geometry/object&#45;&gt;name -->
<g id="edge33" class="edge">
<title>geometry/object&#45;&gt;name</title>
<path fill="none" stroke="#000000" d="M92.4795,-576.003C100.095,-548.927 113.0923,-495.9817 113.0923,-450 113.0923,-450 113.0923,-450 113.0923,-234 113.0923,-158.7785 121.5031,-135.3308 162.0923,-72 170.1988,-59.3515 182.0797,-47.9028 193.2074,-38.8357"/>
<polygon fill="#000000" stroke="#000000" points="195.3789,-41.5808 201.1122,-32.6712 191.0742,-36.0608 195.3789,-41.5808"/>
</g>
<!-- geometry/object&#45;&gt;geometry/algebra -->
<g id="edge34" class="edge">
<title>geometry/object&#45;&gt;geometry/algebra</title>
<path fill="none" stroke="#000000" d="M135.3078,-578.9064C171.1001,-567.7019 220.1007,-552.3626 258.2097,-540.4328"/>
<polygon fill="#000000" stroke="#000000" points="259.6504,-543.6494 268.1481,-537.3217 257.5591,-536.969 259.6504,-543.6494"/>
</g>
<!-- geometry&#45;&gt;group -->
<g id="edge35" class="edge">
<title>geometry&#45;&gt;group</title>
<path fill="none" stroke="#000000" d="M233.1911,-576.1295C226.2831,-566.109 218.6637,-553.0324 215.0923,-540 210.8635,-524.5689 211.6806,-519.632 215.0923,-504 243.7588,-372.653 342.4116,-240.4806 386.047,-186.8827"/>
<polygon fill="#000000" stroke="#000000" points="388.9085,-188.9136 392.5587,-178.9674 383.5026,-184.4664 388.9085,-188.9136"/>
</g>
<!-- geometry/vector_transform&#45;&gt;multiplication -->
<g id="edge32" class="edge">
<title>geometry/vector_transform&#45;&gt;multiplication</title>
<path fill="none" stroke="#000000" d="M356.5826,-650.0164C471.3456,-620.6605 699.0923,-557.8833 699.0923,-522 699.0923,-522 699.0923,-522 699.0923,-450 699.0923,-377.0395 612.8718,-338.8435 549.1274,-320.5744"/>
<polygon fill="#000000" stroke="#000000" points="549.6771,-317.0954 539.1065,-317.8112 547.8163,-323.8436 549.6771,-317.0954"/>
</g>
<!-- geometry/vector_transform&#45;&gt;geometry/algebra -->
<g id="edge31" class="edge">
<title>geometry/vector_transform&#45;&gt;geometry/algebra</title>
<path fill="none" stroke="#000000" d="M299.8671,-647.857C303.9324,-637.5397 308.5745,-624.2666 311.0923,-612 315.2839,-591.5788 316.7386,-568.0586 317.1694,-550.1848"/>
<polygon fill="#000000" stroke="#000000" points="320.6698,-550.1732 317.3192,-540.1221 313.6706,-550.0689 320.6698,-550.1732"/>
</g>
<!-- geometry/vector_transform&#45;&gt;geometry/object -->
<g id="edge29" class="edge">
<title>geometry/vector_transform&#45;&gt;geometry/object</title>
<path fill="none" stroke="#000000" d="M243.7697,-649.0282C212.9817,-638.2148 173.0419,-624.1872 141.1936,-613.0014"/>
<polygon fill="#000000" stroke="#000000" points="142.1834,-609.6395 131.5885,-609.628 139.8637,-616.244 142.1834,-609.6395"/>
</g>
<!-- geometry/vector_transform&#45;&gt;geometry -->
<g id="edge30" class="edge">
<title>geometry/vector_transform&#45;&gt;geometry</title>
<path fill="none" stroke="#000000" d="M280.7369,-647.8314C275.5816,-639.5829 269.382,-629.6635 263.7168,-620.5992"/>
<polygon fill="#000000" stroke="#000000" points="266.5562,-618.5384 258.2882,-611.9134 260.6202,-622.2484 266.5562,-618.5384"/>
</g>
</g>
</svg>
