<?xml version="1.0" encoding="UTF-8" standalone="no"?>
<!DOCTYPE svg PUBLIC "-//W3C//DTD SVG 1.1//EN"
 "http://www.w3.org/Graphics/SVG/1.1/DTD/svg11.dtd">
<!-- Generated by graphviz version 2.40.1 (20161225.0304)
 -->
<!-- Title: dependency_graph Pages: 1 -->
<svg width="2690pt" height="868pt"
 viewBox="0.00 0.00 2690.00 868.00" xmlns="http://www.w3.org/2000/svg" xmlns:xlink="http://www.w3.org/1999/xlink">
<g id="graph0" class="graph" transform="scale(1 1) rotate(0) translate(4 864)">
<title>dependency_graph</title>
<polygon fill="#ffffff" stroke="transparent" points="-4,4 -4,-864 2686,-864 2686,4 -4,4"/>
<g id="clust1" class="cluster">
<title>cluster_root</title>
<polygon fill="none" stroke="#000000" points="2380,-296 2380,-348 2674,-348 2674,-296 2380,-296"/>
</g>
<g id="clust2" class="cluster">
<title>cluster_algebra</title>
<polygon fill="none" stroke="#000000" points="1058,-440 1058,-636 1676,-636 1676,-440 1058,-440"/>
</g>
<g id="clust3" class="cluster">
<title>cluster_geometry</title>
<polygon fill="none" stroke="#000000" points="619,-584 619,-852 1050,-852 1050,-584 619,-584"/>
</g>
<g id="clust4" class="cluster">
<title>cluster_group</title>
<polygon fill="none" stroke="#000000" points="20,-8 20,-564 486,-564 486,-8 20,-8"/>
</g>
<g id="clust5" class="cluster">
<title>cluster_symbolic</title>
<polygon fill="none" stroke="#000000" points="1684,-296 1684,-564 2372,-564 2372,-296 1684,-296"/>
</g>
<g id="clust6" class="cluster">
<title>cluster_vector</title>
<polygon fill="none" stroke="#000000" points="690,-368 690,-564 868,-564 868,-368 690,-368"/>
</g>
<!-- scalar -->
<g id="node1" class="node">
<title>scalar</title>
<ellipse fill="none" stroke="#000000" cx="2427" cy="-322" rx="38.9931" ry="18"/>
<text text-anchor="middle" x="2427" y="-318.3" font-family="Times,serif" font-size="14.00" fill="#000000">scalar</text>
</g>
<!-- symbolic/rational -->
<g id="node2" class="node">
<title>symbolic/rational</title>
<ellipse fill="none" stroke="#000000" cx="1815" cy="-322" rx="90.9839" ry="18"/>
<text text-anchor="middle" x="1815" y="-318.3" font-family="Times,serif" font-size="14.00" fill="#000000">symbolic/rational</text>
</g>
<!-- scalar&#45;&gt;symbolic/rational -->
<g id="edge1" class="edge">
<title>scalar&#45;&gt;symbolic/rational</title>
<path fill="none" stroke="#000000" d="M2387.834,-322C2230.7198,-322 2073.6056,-322 1916.4914,-322"/>
<polygon fill="#000000" stroke="#000000" points="1916.1426,-318.5001 1906.1426,-322 1916.1425,-325.5001 1916.1426,-318.5001"/>
</g>
<!-- group/ordering -->
<g id="node3" class="node">
<title>group/ordering</title>
<ellipse fill="none" stroke="#000000" cx="207" cy="-322" rx="81.4863" ry="18"/>
<text text-anchor="middle" x="207" y="-318.3" font-family="Times,serif" font-size="14.00" fill="#000000">group/ordering</text>
</g>
<!-- group/identity -->
<g id="node4" class="node">
<title>group/identity</title>
<ellipse fill="none" stroke="#000000" cx="254" cy="-34" rx="77.1866" ry="18"/>
<text text-anchor="middle" x="254" y="-30.3" font-family="Times,serif" font-size="14.00" fill="#000000">group/identity</text>
</g>
<!-- group/ordering&#45;&gt;group/identity -->
<g id="edge2" class="edge">
<title>group/ordering&#45;&gt;group/identity</title>
<path fill="none" stroke="#000000" d="M204.4613,-303.781C199.5639,-263.5825 191.4146,-164.7661 217,-88 220.2537,-78.2377 225.8345,-68.6256 231.6892,-60.2789"/>
<polygon fill="#000000" stroke="#000000" points="234.6279,-62.1931 237.8036,-52.0854 229.0178,-58.0066 234.6279,-62.1931"/>
</g>
<!-- group/minus -->
<g id="node5" class="node">
<title>group/minus</title>
<ellipse fill="none" stroke="#000000" cx="299" cy="-178" rx="69.5877" ry="18"/>
<text text-anchor="middle" x="299" y="-174.3" font-family="Times,serif" font-size="14.00" fill="#000000">group/minus</text>
</g>
<!-- group/ordering&#45;&gt;group/minus -->
<g id="edge3" class="edge">
<title>group/ordering&#45;&gt;group/minus</title>
<path fill="none" stroke="#000000" d="M210.1051,-303.8409C214.0179,-284.7166 222.1083,-254.3376 237,-232 244.6977,-220.4535 255.4903,-209.889 265.9171,-201.2259"/>
<polygon fill="#000000" stroke="#000000" points="268.1138,-203.9509 273.7619,-194.9871 263.7567,-198.4722 268.1138,-203.9509"/>
</g>
<!-- group/operation -->
<g id="node6" class="node">
<title>group/operation</title>
<ellipse fill="none" stroke="#000000" cx="331" cy="-250" rx="85.2851" ry="18"/>
<text text-anchor="middle" x="331" y="-246.3" font-family="Times,serif" font-size="14.00" fill="#000000">group/operation</text>
</g>
<!-- group/ordering&#45;&gt;group/operation -->
<g id="edge4" class="edge">
<title>group/ordering&#45;&gt;group/operation</title>
<path fill="none" stroke="#000000" d="M236.0725,-305.1192C253.0512,-295.2606 274.671,-282.7072 292.9881,-272.0714"/>
<polygon fill="#000000" stroke="#000000" points="294.7896,-275.0727 301.68,-267.0245 291.2746,-269.0192 294.7896,-275.0727"/>
</g>
<!-- group/inverse -->
<g id="node7" class="node">
<title>group/inverse</title>
<ellipse fill="none" stroke="#000000" cx="301" cy="-106" rx="75.2868" ry="18"/>
<text text-anchor="middle" x="301" y="-102.3" font-family="Times,serif" font-size="14.00" fill="#000000">group/inverse</text>
</g>
<!-- group/minus&#45;&gt;group/inverse -->
<g id="edge12" class="edge">
<title>group/minus&#45;&gt;group/inverse</title>
<path fill="none" stroke="#000000" d="M299.5047,-159.8314C299.7186,-152.131 299.9729,-142.9743 300.2106,-134.4166"/>
<polygon fill="#000000" stroke="#000000" points="303.7094,-134.5066 300.4885,-124.4133 296.7121,-134.3122 303.7094,-134.5066"/>
</g>
<!-- group/operation&#45;&gt;group/minus -->
<g id="edge6" class="edge">
<title>group/operation&#45;&gt;group/minus</title>
<path fill="none" stroke="#000000" d="M322.925,-231.8314C319.3354,-223.7547 315.0338,-214.0761 311.0741,-205.1668"/>
<polygon fill="#000000" stroke="#000000" points="314.2213,-203.63 306.9615,-195.9134 307.8246,-206.473 314.2213,-203.63"/>
</g>
<!-- group/operation&#45;&gt;group/inverse -->
<g id="edge5" class="edge">
<title>group/operation&#45;&gt;group/inverse</title>
<path fill="none" stroke="#000000" d="M352.2743,-232.2987C362.1187,-222.7065 372.7726,-209.9683 378,-196 383.6079,-181.015 385.3828,-174.1949 378,-160 370.9604,-146.465 358.8018,-135.6165 346.1988,-127.2965"/>
<polygon fill="#000000" stroke="#000000" points="347.8147,-124.1818 337.46,-121.9386 344.1557,-130.1494 347.8147,-124.1818"/>
</g>
<!-- eval -->
<g id="node8" class="node">
<title>eval</title>
<ellipse fill="none" stroke="#000000" cx="2514" cy="-322" rx="29.795" ry="18"/>
<text text-anchor="middle" x="2514" y="-318.3" font-family="Times,serif" font-size="14.00" fill="#000000">eval</text>
</g>
<!-- group/operation&#45;&gt;eval -->
<g id="edge7" class="edge">
<title>group/operation&#45;&gt;eval</title>
<path fill="none" stroke="#000000" d="M416.1909,-250.4962C802.5128,-252.9161 2375.3623,-264.6616 2475,-296 2479.398,-297.3833 2483.7596,-299.4278 2487.8853,-301.773"/>
<polygon fill="#000000" stroke="#000000" points="2486.1509,-304.8181 2496.4635,-307.2477 2489.9169,-298.9174 2486.1509,-304.8181"/>
</g>
<!-- group/inverse&#45;&gt;group/identity -->
<g id="edge10" class="edge">
<title>group/inverse&#45;&gt;group/identity</title>
<path fill="none" stroke="#000000" d="M289.382,-88.2022C283.9024,-79.8079 277.2531,-69.6218 271.2045,-60.3558"/>
<polygon fill="#000000" stroke="#000000" points="274.0443,-58.3032 265.6472,-51.8425 268.1827,-62.1295 274.0443,-58.3032"/>
</g>
<!-- group/concept -->
<g id="node9" class="node">
<title>group/concept</title>
<ellipse fill="none" stroke="#000000" cx="110" cy="-178" rx="77.9862" ry="18"/>
<text text-anchor="middle" x="110" y="-174.3" font-family="Times,serif" font-size="14.00" fill="#000000">group/concept</text>
</g>
<!-- group/concept&#45;&gt;group/identity -->
<g id="edge8" class="edge">
<title>group/concept&#45;&gt;group/identity</title>
<path fill="none" stroke="#000000" d="M127.6572,-160.3428C153.0276,-134.9724 199.9196,-88.0804 228.8895,-59.1105"/>
<polygon fill="#000000" stroke="#000000" points="231.6021,-61.3476 236.1983,-51.8017 226.6524,-56.3979 231.6021,-61.3476"/>
</g>
<!-- group/concept&#45;&gt;group/inverse -->
<g id="edge9" class="edge">
<title>group/concept&#45;&gt;group/inverse</title>
<path fill="none" stroke="#000000" d="M150.9743,-162.5542C180.2788,-151.5075 219.8842,-136.5777 251.0435,-124.8318"/>
<polygon fill="#000000" stroke="#000000" points="252.299,-128.099 260.4217,-121.2965 249.8299,-121.5489 252.299,-128.099"/>
</g>
<!-- group/commutation -->
<g id="node10" class="node">
<title>group/commutation</title>
<ellipse fill="none" stroke="#000000" cx="355" cy="-394" rx="102.8821" ry="18"/>
<text text-anchor="middle" x="355" y="-390.3" font-family="Times,serif" font-size="14.00" fill="#000000">group/commutation</text>
</g>
<!-- group/commutation&#45;&gt;group/ordering -->
<g id="edge11" class="edge">
<title>group/commutation&#45;&gt;group/ordering</title>
<path fill="none" stroke="#000000" d="M319.9261,-376.937C298.9835,-366.7487 272.2262,-353.7317 250.0143,-342.9259"/>
<polygon fill="#000000" stroke="#000000" points="251.3269,-339.6723 240.8034,-338.4449 248.2646,-345.967 251.3269,-339.6723"/>
</g>
<!-- group/generate -->
<g id="node11" class="node">
<title>group/generate</title>
<ellipse fill="none" stroke="#000000" cx="131" cy="-394" rx="82.5854" ry="18"/>
<text text-anchor="middle" x="131" y="-390.3" font-family="Times,serif" font-size="14.00" fill="#000000">group/generate</text>
</g>
<!-- group/generate&#45;&gt;group/operation -->
<g id="edge13" class="edge">
<title>group/generate&#45;&gt;group/operation</title>
<path fill="none" stroke="#000000" d="M121.1053,-375.9462C110.8374,-354.4857 98.639,-318.7271 117,-296 132.9239,-276.2895 190.3311,-264.6316 241.68,-257.9854"/>
<polygon fill="#000000" stroke="#000000" points="242.3624,-261.4277 251.8549,-256.7221 241.4998,-254.481 242.3624,-261.4277"/>
</g>
<!-- group/geometric -->
<g id="node12" class="node">
<title>group/geometric</title>
<ellipse fill="none" stroke="#000000" cx="390" cy="-466" rx="88.2844" ry="18"/>
<text text-anchor="middle" x="390" y="-462.3" font-family="Times,serif" font-size="14.00" fill="#000000">group/geometric</text>
</g>
<!-- group/geometric&#45;&gt;group/operation -->
<g id="edge14" class="edge">
<title>group/geometric&#45;&gt;group/operation</title>
<path fill="none" stroke="#000000" d="M427.2673,-449.5981C442.4863,-440.8083 458.4866,-428.3688 467,-412 476.0234,-394.6507 479.8817,-382.7133 467,-368 422.6964,-317.3972 361.3036,-398.6028 317,-348 300.2118,-328.8248 307.5704,-298.9818 316.7345,-277.2636"/>
<polygon fill="#000000" stroke="#000000" points="320.0287,-278.4752 320.9919,-267.9243 313.6592,-275.5717 320.0287,-278.4752"/>
</g>
<!-- group/geometric&#45;&gt;group/commutation -->
<g id="edge15" class="edge">
<title>group/geometric&#45;&gt;group/commutation</title>
<path fill="none" stroke="#000000" d="M381.168,-447.8314C377.3014,-439.8771 372.6794,-430.369 368.4032,-421.5723"/>
<polygon fill="#000000" stroke="#000000" points="371.4707,-419.8768 363.9509,-412.4133 365.1751,-422.9371 371.4707,-419.8768"/>
</g>
<!-- group/ordering.test -->
<g id="node13" class="node">
<title>group/ordering.test</title>
<polygon fill="none" stroke="#000000" points="283.5,-484 126.5,-484 126.5,-448 283.5,-448 283.5,-484"/>
<text text-anchor="middle" x="205" y="-462.3" font-family="Times,serif" font-size="14.00" fill="#000000">group/ordering.test</text>
</g>
<!-- group/ordering.test&#45;&gt;group/ordering -->
<g id="edge16" class="edge">
<title>group/ordering.test&#45;&gt;group/ordering</title>
<path fill="none" stroke="#000000" d="M212.6679,-447.8756C216.6139,-437.5642 221.0055,-424.2907 223,-412 226.1325,-392.697 226.2577,-387.2823 223,-368 221.9713,-361.9112 220.2274,-355.5527 218.2601,-349.574"/>
<polygon fill="#000000" stroke="#000000" points="221.4926,-348.2192 214.8251,-339.9854 214.9027,-350.58 221.4926,-348.2192"/>
</g>
<!-- group/ordering.test&#45;&gt;group/commutation -->
<g id="edge17" class="edge">
<title>group/ordering.test&#45;&gt;group/commutation</title>
<path fill="none" stroke="#000000" d="M242.8513,-447.8314C263.415,-437.9608 288.9634,-425.6975 310.4792,-415.37"/>
<polygon fill="#000000" stroke="#000000" points="312.2362,-418.409 319.7369,-410.9263 309.2071,-412.0983 312.2362,-418.409"/>
</g>
<!-- group/reverse -->
<g id="node14" class="node">
<title>group/reverse</title>
<ellipse fill="none" stroke="#000000" cx="402" cy="-322" rx="76.0865" ry="18"/>
<text text-anchor="middle" x="402" y="-318.3" font-family="Times,serif" font-size="14.00" fill="#000000">group/reverse</text>
</g>
<!-- group/reverse&#45;&gt;group/operation -->
<g id="edge18" class="edge">
<title>group/reverse&#45;&gt;group/operation</title>
<path fill="none" stroke="#000000" d="M384.4494,-304.2022C375.8303,-295.4617 365.2956,-284.7786 355.8642,-275.2144"/>
<polygon fill="#000000" stroke="#000000" points="358.1083,-272.5054 348.5947,-267.8425 353.1241,-277.4204 358.1083,-272.5054"/>
</g>
<!-- group/geometric.test -->
<g id="node15" class="node">
<title>group/geometric.test</title>
<polygon fill="none" stroke="#000000" points="335,-556 167,-556 167,-520 335,-520 335,-556"/>
<text text-anchor="middle" x="251" y="-534.3" font-family="Times,serif" font-size="14.00" fill="#000000">group/geometric.test</text>
</g>
<!-- group/geometric.test&#45;&gt;group/concept -->
<g id="edge21" class="edge">
<title>group/geometric.test&#45;&gt;group/concept</title>
<path fill="none" stroke="#000000" d="M168.6509,-519.9194C105.4719,-500.6295 29,-463.0245 29,-394 29,-394 29,-394 29,-322 29,-275.5302 61.4397,-230.206 85.2606,-203.1881"/>
<polygon fill="#000000" stroke="#000000" points="87.8932,-205.4954 92.0235,-195.7387 82.7104,-200.7902 87.8932,-205.4954"/>
</g>
<!-- group/geometric.test&#45;&gt;group/generate -->
<g id="edge19" class="edge">
<title>group/geometric.test&#45;&gt;group/generate</title>
<path fill="none" stroke="#000000" d="M166.703,-520.8555C147.5938,-512.8664 129.5519,-501.158 118,-484 105.6867,-465.7111 110.6768,-440.592 117.7558,-421.5379"/>
<polygon fill="#000000" stroke="#000000" points="121.0306,-422.7762 121.5675,-412.1949 114.5493,-420.1319 121.0306,-422.7762"/>
</g>
<!-- group/geometric.test&#45;&gt;group/geometric -->
<g id="edge20" class="edge">
<title>group/geometric.test&#45;&gt;group/geometric</title>
<path fill="none" stroke="#000000" d="M286.0756,-519.8314C304.9604,-510.0493 328.3818,-497.9173 348.2067,-487.6483"/>
<polygon fill="#000000" stroke="#000000" points="350.0532,-490.6336 357.3229,-482.9263 346.8335,-484.418 350.0532,-490.6336"/>
</g>
<!-- unit_test -->
<g id="node16" class="node">
<title>unit_test</title>
<ellipse fill="none" stroke="#000000" cx="2614" cy="-322" rx="51.9908" ry="18"/>
<text text-anchor="middle" x="2614" y="-318.3" font-family="Times,serif" font-size="14.00" fill="#000000">unit_test</text>
</g>
<!-- group/geometric.test&#45;&gt;unit_test -->
<g id="edge22" class="edge">
<title>group/geometric.test&#45;&gt;unit_test</title>
<path fill="none" stroke="#000000" d="M335.0393,-525.1684C380.9559,-516.5834 438.236,-503.271 487,-484 582.2088,-446.3746 587.3143,-395.231 686,-368 785.9913,-340.4087 2451.4822,-369.2996 2553,-348 2560.4361,-346.4398 2568.0925,-343.956 2575.3613,-341.1284"/>
<polygon fill="#000000" stroke="#000000" points="2577.0965,-344.1968 2584.9759,-337.114 2574.3994,-337.7372 2577.0965,-344.1968"/>
</g>
<!-- algebra/multiplication -->
<g id="node17" class="node">
<title>algebra/multiplication</title>
<ellipse fill="none" stroke="#000000" cx="1182" cy="-466" rx="113.9803" ry="18"/>
<text text-anchor="middle" x="1182" y="-462.3" font-family="Times,serif" font-size="14.00" fill="#000000">algebra/multiplication</text>
</g>
<!-- algebra/multiplication&#45;&gt;symbolic/rational -->
<g id="edge23" class="edge">
<title>algebra/multiplication&#45;&gt;symbolic/rational</title>
<path fill="none" stroke="#000000" d="M1247.0624,-451.1991C1366.8925,-423.9392 1621.4844,-366.0225 1744.9489,-337.9358"/>
<polygon fill="#000000" stroke="#000000" points="1746.0703,-341.2702 1755.0448,-335.6391 1744.5175,-334.4446 1746.0703,-341.2702"/>
</g>
<!-- symbolic/operation -->
<g id="node18" class="node">
<title>symbolic/operation</title>
<ellipse fill="none" stroke="#000000" cx="1815" cy="-394" rx="99.3824" ry="18"/>
<text text-anchor="middle" x="1815" y="-390.3" font-family="Times,serif" font-size="14.00" fill="#000000">symbolic/operation</text>
</g>
<!-- algebra/multiplication&#45;&gt;symbolic/operation -->
<g id="edge24" class="edge">
<title>algebra/multiplication&#45;&gt;symbolic/operation</title>
<path fill="none" stroke="#000000" d="M1274.3824,-455.4921C1393.7034,-441.92 1600.3075,-418.42 1720.602,-404.7372"/>
<polygon fill="#000000" stroke="#000000" points="1720.9985,-408.2148 1730.5389,-403.607 1720.2073,-401.2596 1720.9985,-408.2148"/>
</g>
<!-- vector/basis -->
<g id="node19" class="node">
<title>vector/basis</title>
<ellipse fill="none" stroke="#000000" cx="792" cy="-394" rx="67.6881" ry="18"/>
<text text-anchor="middle" x="792" y="-390.3" font-family="Times,serif" font-size="14.00" fill="#000000">vector/basis</text>
</g>
<!-- algebra/multiplication&#45;&gt;vector/basis -->
<g id="edge25" class="edge">
<title>algebra/multiplication&#45;&gt;vector/basis</title>
<path fill="none" stroke="#000000" d="M1107.726,-452.2879C1035.4744,-438.9491 926.7672,-418.8801 857.6171,-406.1139"/>
<polygon fill="#000000" stroke="#000000" points="858.18,-402.6588 847.7107,-404.2851 856.9091,-409.5424 858.18,-402.6588"/>
</g>
<!-- vector/addition -->
<g id="node20" class="node">
<title>vector/addition</title>
<ellipse fill="none" stroke="#000000" cx="779" cy="-466" rx="81.4863" ry="18"/>
<text text-anchor="middle" x="779" y="-462.3" font-family="Times,serif" font-size="14.00" fill="#000000">vector/addition</text>
</g>
<!-- algebra/multiplication&#45;&gt;vector/addition -->
<g id="edge26" class="edge">
<title>algebra/multiplication&#45;&gt;vector/addition</title>
<path fill="none" stroke="#000000" d="M1068.0186,-466C1002.2125,-466 936.4064,-466 870.6002,-466"/>
<polygon fill="#000000" stroke="#000000" points="870.4659,-462.5001 860.4658,-466 870.4658,-469.5001 870.4659,-462.5001"/>
</g>
<!-- symbolic/operation&#45;&gt;symbolic/rational -->
<g id="edge53" class="edge">
<title>symbolic/operation&#45;&gt;symbolic/rational</title>
<path fill="none" stroke="#000000" d="M1815,-375.8314C1815,-368.131 1815,-358.9743 1815,-350.4166"/>
<polygon fill="#000000" stroke="#000000" points="1818.5001,-350.4132 1815,-340.4133 1811.5001,-350.4133 1818.5001,-350.4132"/>
</g>
<!-- symbolic/operation&#45;&gt;eval -->
<g id="edge54" class="edge">
<title>symbolic/operation&#45;&gt;eval</title>
<path fill="none" stroke="#000000" d="M1878.1325,-379.9769C1901.2547,-375.3824 1927.7043,-370.7544 1952,-368 2067.5669,-354.8984 2364.3477,-383.8251 2475,-348 2479.3863,-346.5799 2483.7412,-344.5149 2487.864,-342.16"/>
<polygon fill="#000000" stroke="#000000" points="2489.8984,-345.0136 2496.4402,-336.6795 2486.1291,-339.115 2489.8984,-345.0136"/>
</g>
<!-- vector/basis&#45;&gt;scalar -->
<g id="edge51" class="edge">
<title>vector/basis&#45;&gt;scalar</title>
<path fill="none" stroke="#000000" d="M854.0099,-386.6465C909.0714,-380.4579 991.7683,-371.9964 1064,-368 1136.786,-363.973 2305.2505,-365.5651 2376,-348 2382.2666,-346.4442 2388.6372,-344.0035 2394.6554,-341.2272"/>
<polygon fill="#000000" stroke="#000000" points="2396.384,-344.276 2403.7569,-336.6673 2393.2484,-338.0175 2396.384,-344.276"/>
</g>
<!-- vector/basis&#45;&gt;eval -->
<g id="edge52" class="edge">
<title>vector/basis&#45;&gt;eval</title>
<path fill="none" stroke="#000000" d="M853.7383,-386.6581C908.7985,-380.4544 991.6478,-371.9642 1064,-368 1142.2794,-363.711 2400.13,-371.2493 2475,-348 2479.403,-346.6327 2483.7673,-344.5972 2487.8945,-342.2561"/>
<polygon fill="#000000" stroke="#000000" points="2489.9247,-345.1126 2496.4734,-336.784 2486.1602,-339.2109 2489.9247,-345.1126"/>
</g>
<!-- vector/addition&#45;&gt;group/minus -->
<g id="edge48" class="edge">
<title>vector/addition&#45;&gt;group/minus</title>
<path fill="none" stroke="#000000" d="M745.8435,-449.3411C726.708,-439.2882 702.458,-425.7882 682,-412 664.9627,-400.5173 554.995,-307.5453 538,-296 490.2568,-263.5663 476.7155,-257.6294 425,-232 399.6045,-219.4144 370.5691,-206.8522 346.7762,-197.0153"/>
<polygon fill="#000000" stroke="#000000" points="347.8437,-193.6702 337.2636,-193.1117 345.1862,-200.1461 347.8437,-193.6702"/>
</g>
<!-- vector/addition&#45;&gt;group/operation -->
<g id="edge46" class="edge">
<title>vector/addition&#45;&gt;group/operation</title>
<path fill="none" stroke="#000000" d="M733.2925,-451.0202C706.5018,-441.4397 672.4447,-427.8517 644,-412 568.2157,-369.7667 564.6802,-334.6354 487,-296 460.3178,-282.7292 429.1219,-272.5823 401.669,-265.2392"/>
<polygon fill="#000000" stroke="#000000" points="402.2981,-261.7865 391.7394,-262.66 400.5383,-268.5617 402.2981,-261.7865"/>
</g>
<!-- vector/addition&#45;&gt;group/inverse -->
<g id="edge47" class="edge">
<title>vector/addition&#45;&gt;group/inverse</title>
<path fill="none" stroke="#000000" d="M751.2598,-448.9134C738.3331,-439.5595 723.8797,-426.8472 715,-412 694.0164,-376.9144 696,-362.8816 696,-322 696,-322 696,-322 696,-250 696,-182.4241 489.3578,-137.269 374.9968,-117.4532"/>
<polygon fill="#000000" stroke="#000000" points="375.3493,-113.9628 364.9026,-115.7284 374.1702,-120.8628 375.3493,-113.9628"/>
</g>
<!-- vector/addition&#45;&gt;group/commutation -->
<g id="edge45" class="edge">
<title>vector/addition&#45;&gt;group/commutation</title>
<path fill="none" stroke="#000000" d="M714.142,-454.9864C640.394,-442.4631 519.7695,-421.9797 438.9118,-408.2492"/>
<polygon fill="#000000" stroke="#000000" points="439.2068,-404.7492 428.762,-406.5256 438.0348,-411.6504 439.2068,-404.7492"/>
</g>
<!-- vector/addition&#45;&gt;vector/basis -->
<g id="edge44" class="edge">
<title>vector/addition&#45;&gt;vector/basis</title>
<path fill="none" stroke="#000000" d="M782.2804,-447.8314C783.6708,-440.131 785.3241,-430.9743 786.8692,-422.4166"/>
<polygon fill="#000000" stroke="#000000" points="790.3428,-422.8761 788.6754,-412.4133 783.4542,-421.6322 790.3428,-422.8761"/>
</g>
<!-- algebra/exponential -->
<g id="node21" class="node">
<title>algebra/exponential</title>
<ellipse fill="none" stroke="#000000" cx="1565" cy="-538" rx="102.8821" ry="18"/>
<text text-anchor="middle" x="1565" y="-534.3" font-family="Times,serif" font-size="14.00" fill="#000000">algebra/exponential</text>
</g>
<!-- algebra/exponential&#45;&gt;symbolic/rational -->
<g id="edge30" class="edge">
<title>algebra/exponential&#45;&gt;symbolic/rational</title>
<path fill="none" stroke="#000000" d="M1491.3018,-525.4228C1478.5511,-523.4567 1465.4077,-521.5621 1453,-520 1409.3841,-514.509 1088.6366,-516.4679 1059,-484 1045.8162,-469.5567 1046.602,-455.1231 1059,-440 1100.5501,-389.3171 1527.292,-346.6533 1720.6652,-329.7633"/>
<polygon fill="#000000" stroke="#000000" points="1721.1578,-333.2338 1730.8174,-328.8816 1720.552,-326.2601 1721.1578,-333.2338"/>
</g>
<!-- algebra/exponential&#45;&gt;group/identity -->
<g id="edge28" class="edge">
<title>algebra/exponential&#45;&gt;group/identity</title>
<path fill="none" stroke="#000000" d="M1491.3059,-525.39C1478.5547,-523.4276 1465.4101,-521.5428 1453,-520 1272.3527,-497.543 1214.8656,-549.4482 1045,-484 983.1224,-460.1589 926,-460.3116 926,-394 926,-394 926,-394 926,-178 926,-118.0886 512.3461,-63.5469 334.1225,-42.8279"/>
<polygon fill="#000000" stroke="#000000" points="334.3498,-39.331 324.014,-41.6598 333.5461,-46.2847 334.3498,-39.331"/>
</g>
<!-- algebra/exponential&#45;&gt;eval -->
<g id="edge31" class="edge">
<title>algebra/exponential&#45;&gt;eval</title>
<path fill="none" stroke="#000000" d="M1579.4143,-519.7993C1599.2085,-496.3808 1637.2513,-456.7274 1680,-440 1824.1491,-383.5949 2229.8885,-463.1068 2376,-412 2407.2142,-401.0819 2407.8654,-385.3775 2436,-368 2452.5732,-357.7635 2458.202,-357.8632 2475,-348 2478.6315,-345.8677 2482.3884,-343.5351 2486.0718,-341.1702"/>
<polygon fill="#000000" stroke="#000000" points="2488.0033,-344.089 2494.4389,-335.6727 2484.1595,-338.2388 2488.0033,-344.089"/>
</g>
<!-- algebra/exponential&#45;&gt;vector/basis -->
<g id="edge27" class="edge">
<title>algebra/exponential&#45;&gt;vector/basis</title>
<path fill="none" stroke="#000000" d="M1491.9351,-525.2545C1478.9931,-523.2836 1465.6217,-521.4311 1453,-520 1333.279,-506.4259 1021.4356,-534.4107 912,-484 887.165,-472.5599 890.4712,-456.9304 869,-440 857.5861,-431 844.2586,-422.4475 831.9304,-415.2127"/>
<polygon fill="#000000" stroke="#000000" points="833.5879,-412.1285 823.1719,-410.19 830.1056,-418.2009 833.5879,-412.1285"/>
</g>
<!-- symbolic/trigonometry -->
<g id="node22" class="node">
<title>symbolic/trigonometry</title>
<ellipse fill="none" stroke="#000000" cx="1808" cy="-466" rx="116.1796" ry="18"/>
<text text-anchor="middle" x="1808" y="-462.3" font-family="Times,serif" font-size="14.00" fill="#000000">symbolic/trigonometry</text>
</g>
<!-- algebra/exponential&#45;&gt;symbolic/trigonometry -->
<g id="edge29" class="edge">
<title>algebra/exponential&#45;&gt;symbolic/trigonometry</title>
<path fill="none" stroke="#000000" d="M1617.4282,-522.4657C1654.6,-511.4519 1704.6877,-496.611 1744.1847,-484.9082"/>
<polygon fill="#000000" stroke="#000000" points="1745.3901,-488.2015 1753.9838,-482.0048 1743.4015,-481.49 1745.3901,-488.2015"/>
</g>
<!-- symbolic/trigonometry&#45;&gt;symbolic/operation -->
<g id="edge56" class="edge">
<title>symbolic/trigonometry&#45;&gt;symbolic/operation</title>
<path fill="none" stroke="#000000" d="M1809.7664,-447.8314C1810.515,-440.131 1811.4053,-430.9743 1812.2373,-422.4166"/>
<polygon fill="#000000" stroke="#000000" points="1815.7256,-422.7051 1813.2098,-412.4133 1808.7585,-422.0276 1815.7256,-422.7051"/>
</g>
<!-- symbolic/trigonometry&#45;&gt;vector/basis -->
<g id="edge57" class="edge">
<title>symbolic/trigonometry&#45;&gt;vector/basis</title>
<path fill="none" stroke="#000000" d="M1743.5216,-450.958C1723.2915,-446.7635 1700.8088,-442.6375 1680,-440 1524.3389,-420.2701 1055.9638,-402.8689 869.6598,-396.5387"/>
<polygon fill="#000000" stroke="#000000" points="869.5124,-393.0318 859.3997,-396.1916 869.2756,-400.0278 869.5124,-393.0318"/>
</g>
<!-- symbolic/trigonometry&#45;&gt;vector/addition -->
<g id="edge58" class="edge">
<title>symbolic/trigonometry&#45;&gt;vector/addition</title>
<path fill="none" stroke="#000000" d="M1758.507,-482.2943C1732.7315,-489.9363 1700.5113,-498.1873 1671,-502 1530.8316,-520.1089 1175.9886,-511.8647 1035,-502 972.9834,-497.6608 903.1307,-487.4778 852.078,-479.0452"/>
<polygon fill="#000000" stroke="#000000" points="852.5658,-475.5783 842.126,-477.3843 851.4134,-482.4828 852.5658,-475.5783"/>
</g>
<!-- algebra/geometric -->
<g id="node23" class="node">
<title>algebra/geometric</title>
<ellipse fill="none" stroke="#000000" cx="1348" cy="-538" rx="96.3833" ry="18"/>
<text text-anchor="middle" x="1348" y="-534.3" font-family="Times,serif" font-size="14.00" fill="#000000">algebra/geometric</text>
</g>
<!-- algebra/geometric&#45;&gt;symbolic/rational -->
<g id="edge36" class="edge">
<title>algebra/geometric&#45;&gt;symbolic/rational</title>
<path fill="none" stroke="#000000" d="M1276.9407,-525.864C1192.5123,-511.2801 1062.5157,-488.2335 1059,-484 1046.5064,-468.9557 1046.602,-455.1231 1059,-440 1100.5501,-389.3171 1527.292,-346.6533 1720.6652,-329.7633"/>
<polygon fill="#000000" stroke="#000000" points="1721.1578,-333.2338 1730.8174,-328.8816 1720.552,-326.2601 1721.1578,-333.2338"/>
</g>
<!-- algebra/geometric&#45;&gt;group/ordering -->
<g id="edge33" class="edge">
<title>algebra/geometric&#45;&gt;group/ordering</title>
<path fill="none" stroke="#000000" d="M1279.8085,-525.2387C1267.585,-523.2573 1254.9394,-521.4053 1243,-520 996.6286,-491.0023 924.6951,-551.5603 686,-484 580.0191,-454.0032 571.8998,-401.5826 467,-368 402.9458,-347.4937 383.1418,-360.1949 317,-348 301.7235,-345.1834 285.3768,-341.6227 270.0824,-338.0473"/>
<polygon fill="#000000" stroke="#000000" points="270.7435,-334.6071 260.2056,-335.7033 269.1271,-341.4179 270.7435,-334.6071"/>
</g>
<!-- algebra/geometric&#45;&gt;group/geometric -->
<g id="edge32" class="edge">
<title>algebra/geometric&#45;&gt;group/geometric</title>
<path fill="none" stroke="#000000" d="M1280.3912,-525.1635C1267.9913,-523.1646 1255.1345,-521.3259 1243,-520 910.8162,-483.7021 824.094,-521.1107 492,-484 482.879,-482.9807 473.3405,-481.6524 463.9135,-480.1788"/>
<polygon fill="#000000" stroke="#000000" points="464.1846,-476.6771 453.7531,-478.5305 463.0636,-483.5868 464.1846,-476.6771"/>
</g>
<!-- algebra/geometric&#45;&gt;algebra/multiplication -->
<g id="edge37" class="edge">
<title>algebra/geometric&#45;&gt;algebra/multiplication</title>
<path fill="none" stroke="#000000" d="M1309.499,-521.3008C1285.974,-511.0972 1255.6777,-497.9566 1230.5209,-487.0452"/>
<polygon fill="#000000" stroke="#000000" points="1231.7227,-483.7515 1221.1557,-482.9832 1228.9372,-490.1734 1231.7227,-483.7515"/>
</g>
<!-- algebra/geometric&#45;&gt;vector/addition -->
<g id="edge34" class="edge">
<title>algebra/geometric&#45;&gt;vector/addition</title>
<path fill="none" stroke="#000000" d="M1278.9208,-525.4251C1266.9656,-523.4587 1254.6399,-521.5634 1243,-520 1079.6879,-498.0648 1037.1142,-507.3614 874,-484 865.8188,-482.8283 857.2705,-481.4415 848.7991,-479.9656"/>
<polygon fill="#000000" stroke="#000000" points="849.376,-476.5134 838.9163,-478.1998 848.1447,-483.4042 849.376,-476.5134"/>
</g>
<!-- algebra/geometric&#45;&gt;symbolic/trigonometry -->
<g id="edge35" class="edge">
<title>algebra/geometric&#45;&gt;symbolic/trigonometry</title>
<path fill="none" stroke="#000000" d="M1418.5701,-525.7148C1430.0714,-523.7665 1441.8628,-521.8015 1453,-520 1541.1647,-505.7388 1641.828,-490.528 1713.3906,-479.8966"/>
<polygon fill="#000000" stroke="#000000" points="1713.913,-483.3575 1723.2909,-478.4275 1712.8854,-476.4334 1713.913,-483.3575"/>
</g>
<!-- algebra/reverse -->
<g id="node24" class="node">
<title>algebra/reverse</title>
<ellipse fill="none" stroke="#000000" cx="1150" cy="-538" rx="83.6854" ry="18"/>
<text text-anchor="middle" x="1150" y="-534.3" font-family="Times,serif" font-size="14.00" fill="#000000">algebra/reverse</text>
</g>
<!-- algebra/reverse&#45;&gt;group/reverse -->
<g id="edge39" class="edge">
<title>algebra/reverse&#45;&gt;group/reverse</title>
<path fill="none" stroke="#000000" d="M1069.9339,-532.566C956.571,-524.2109 755.3498,-506.7606 686,-484 659.7518,-475.3854 509.1938,-386.1919 438.5662,-343.9527"/>
<polygon fill="#000000" stroke="#000000" points="440.3366,-340.9334 429.9586,-338.8007 436.7415,-346.9397 440.3366,-340.9334"/>
</g>
<!-- algebra/reverse&#45;&gt;algebra/multiplication -->
<g id="edge38" class="edge">
<title>algebra/reverse&#45;&gt;algebra/multiplication</title>
<path fill="none" stroke="#000000" d="M1158.075,-519.8314C1161.6102,-511.8771 1165.836,-502.369 1169.7456,-493.5723"/>
<polygon fill="#000000" stroke="#000000" points="1172.9532,-494.9729 1173.8163,-484.4133 1166.5565,-492.1299 1172.9532,-494.9729"/>
</g>
<!-- algebra/geometric.test -->
<g id="node25" class="node">
<title>algebra/geometric.test</title>
<polygon fill="none" stroke="#000000" points="1546,-628 1366,-628 1366,-592 1546,-592 1546,-628"/>
<text text-anchor="middle" x="1456" y="-606.3" font-family="Times,serif" font-size="14.00" fill="#000000">algebra/geometric.test</text>
</g>
<!-- algebra/geometric.test&#45;&gt;unit_test -->
<g id="edge43" class="edge">
<title>algebra/geometric.test&#45;&gt;unit_test</title>
<path fill="none" stroke="#000000" d="M1546.2558,-608.7552C1762.9395,-605.3019 2300.245,-593.8127 2376,-564 2487.7499,-520.0219 2479.6256,-455.3875 2562,-368 2569.3168,-360.2379 2577.7893,-352.3451 2585.744,-345.3396"/>
<polygon fill="#000000" stroke="#000000" points="2588.1867,-347.8545 2593.4641,-338.6675 2583.6095,-342.5583 2588.1867,-347.8545"/>
</g>
<!-- algebra/geometric.test&#45;&gt;algebra/exponential -->
<g id="edge41" class="edge">
<title>algebra/geometric.test&#45;&gt;algebra/exponential</title>
<path fill="none" stroke="#000000" d="M1483.5053,-591.8314C1497.6343,-582.4984 1515.0016,-571.0264 1530.0683,-561.0742"/>
<polygon fill="#000000" stroke="#000000" points="1532.2166,-563.8498 1538.6315,-555.4177 1528.3584,-558.009 1532.2166,-563.8498"/>
</g>
<!-- algebra/geometric.test&#45;&gt;algebra/geometric -->
<g id="edge40" class="edge">
<title>algebra/geometric.test&#45;&gt;algebra/geometric</title>
<path fill="none" stroke="#000000" d="M1428.747,-591.8314C1414.7477,-582.4984 1397.5397,-571.0264 1382.6113,-561.0742"/>
<polygon fill="#000000" stroke="#000000" points="1384.3886,-558.0526 1374.1266,-555.4177 1380.5056,-563.8769 1384.3886,-558.0526"/>
</g>
<!-- algebra/geometric.test&#45;&gt;algebra/reverse -->
<g id="edge42" class="edge">
<title>algebra/geometric.test&#45;&gt;algebra/reverse</title>
<path fill="none" stroke="#000000" d="M1366.8605,-591.9921C1328.6074,-583.9433 1283.4875,-574.0219 1243,-564 1232.2847,-561.3476 1220.9292,-558.3397 1209.9716,-555.3345"/>
<polygon fill="#000000" stroke="#000000" points="1210.6217,-551.8829 1200.0502,-552.5858 1208.7527,-558.6287 1210.6217,-551.8829"/>
</g>
<!-- vector/addition.test -->
<g id="node26" class="node">
<title>vector/addition.test</title>
<polygon fill="none" stroke="#000000" points="859,-556 701,-556 701,-520 859,-520 859,-556"/>
<text text-anchor="middle" x="780" y="-534.3" font-family="Times,serif" font-size="14.00" fill="#000000">vector/addition.test</text>
</g>
<!-- vector/addition.test&#45;&gt;unit_test -->
<g id="edge50" class="edge">
<title>vector/addition.test&#45;&gt;unit_test</title>
<path fill="none" stroke="#000000" d="M821.3466,-519.8372C874.2256,-497.4016 969.1272,-459.7829 1054,-440 1326.7453,-376.4263 1400.6044,-387.2273 1680,-368 1776.7965,-361.3387 2458.1653,-368.5018 2553,-348 2560.4264,-346.3945 2568.0781,-343.8887 2575.3453,-341.0535"/>
<polygon fill="#000000" stroke="#000000" points="2577.0817,-344.1213 2584.9595,-337.0368 2574.3831,-337.6624 2577.0817,-344.1213"/>
</g>
<!-- vector/addition.test&#45;&gt;vector/addition -->
<g id="edge49" class="edge">
<title>vector/addition.test&#45;&gt;vector/addition</title>
<path fill="none" stroke="#000000" d="M779.7477,-519.8314C779.6407,-512.131 779.5135,-502.9743 779.3947,-494.4166"/>
<polygon fill="#000000" stroke="#000000" points="782.8944,-494.3637 779.2557,-484.4133 775.8951,-494.4609 782.8944,-494.3637"/>
</g>
<!-- symbolic/factorial -->
<g id="node27" class="node">
<title>symbolic/factorial</title>
<ellipse fill="none" stroke="#000000" cx="2055" cy="-394" rx="94.4839" ry="18"/>
<text text-anchor="middle" x="2055" y="-390.3" font-family="Times,serif" font-size="14.00" fill="#000000">symbolic/factorial</text>
</g>
<!-- symbolic/factorial&#45;&gt;symbolic/rational -->
<g id="edge55" class="edge">
<title>symbolic/factorial&#45;&gt;symbolic/rational</title>
<path fill="none" stroke="#000000" d="M2004.1022,-378.7307C1966.3486,-367.4046 1914.7523,-351.9257 1874.9917,-339.9975"/>
<polygon fill="#000000" stroke="#000000" points="1875.9964,-336.6449 1865.4124,-337.1237 1873.9849,-343.3497 1875.9964,-336.6449"/>
</g>
<!-- symbolic/operation.test -->
<g id="node28" class="node">
<title>symbolic/operation.test</title>
<polygon fill="none" stroke="#000000" points="2127.5,-484 1942.5,-484 1942.5,-448 2127.5,-448 2127.5,-484"/>
<text text-anchor="middle" x="2035" y="-462.3" font-family="Times,serif" font-size="14.00" fill="#000000">symbolic/operation.test</text>
</g>
<!-- symbolic/operation.test&#45;&gt;symbolic/operation -->
<g id="edge59" class="edge">
<title>symbolic/operation.test&#45;&gt;symbolic/operation</title>
<path fill="none" stroke="#000000" d="M1979.7687,-447.9243C1947.1,-437.2327 1905.7786,-423.7094 1872.6892,-412.8801"/>
<polygon fill="#000000" stroke="#000000" points="1873.7398,-409.5413 1863.1471,-409.7572 1871.5624,-416.1941 1873.7398,-409.5413"/>
</g>
<!-- symbolic/exponential -->
<g id="node29" class="node">
<title>symbolic/exponential</title>
<ellipse fill="none" stroke="#000000" cx="2255" cy="-466" rx="109.381" ry="18"/>
<text text-anchor="middle" x="2255" y="-462.3" font-family="Times,serif" font-size="14.00" fill="#000000">symbolic/exponential</text>
</g>
<!-- symbolic/exponential&#45;&gt;symbolic/factorial -->
<g id="edge60" class="edge">
<title>symbolic/exponential&#45;&gt;symbolic/factorial</title>
<path fill="none" stroke="#000000" d="M2209.3667,-449.572C2179.4852,-438.8147 2140.2985,-424.7075 2108.8854,-413.3987"/>
<polygon fill="#000000" stroke="#000000" points="2109.9993,-410.0799 2099.4049,-409.9858 2107.6282,-416.6661 2109.9993,-410.0799"/>
</g>
<!-- symbolic/exponential.test -->
<g id="node30" class="node">
<title>symbolic/exponential.test</title>
<polygon fill="none" stroke="#000000" points="2136,-556 1936,-556 1936,-520 2136,-520 2136,-556"/>
<text text-anchor="middle" x="2036" y="-534.3" font-family="Times,serif" font-size="14.00" fill="#000000">symbolic/exponential.test</text>
</g>
<!-- symbolic/exponential.test&#45;&gt;unit_test -->
<g id="edge62" class="edge">
<title>symbolic/exponential.test&#45;&gt;unit_test</title>
<path fill="none" stroke="#000000" d="M2136.079,-521.445C2139.0861,-520.9566 2142.0651,-520.474 2145,-520 2246.2762,-503.6425 2281.8885,-531.1502 2373,-484 2436.9218,-450.9205 2424.4267,-405.269 2486,-368 2512.5855,-351.9084 2523.7708,-358.5537 2553,-348 2559.4748,-345.6622 2566.2529,-342.9979 2572.8395,-340.2873"/>
<polygon fill="#000000" stroke="#000000" points="2574.4308,-343.4152 2582.2949,-336.3154 2571.7197,-336.9615 2574.4308,-343.4152"/>
</g>
<!-- symbolic/exponential.test&#45;&gt;symbolic/exponential -->
<g id="edge61" class="edge">
<title>symbolic/exponential.test&#45;&gt;symbolic/exponential</title>
<path fill="none" stroke="#000000" d="M2090.9803,-519.9243C2123.0164,-509.3919 2163.4114,-496.1113 2196.0967,-485.3655"/>
<polygon fill="#000000" stroke="#000000" points="2197.5685,-488.566 2205.9752,-482.1178 2195.3822,-481.9161 2197.5685,-488.566"/>
</g>
<!-- symbolic/trigonometry.test -->
<g id="node31" class="node">
<title>symbolic/trigonometry.test</title>
<polygon fill="none" stroke="#000000" points="2364,-556 2154,-556 2154,-520 2364,-520 2364,-556"/>
<text text-anchor="middle" x="2259" y="-534.3" font-family="Times,serif" font-size="14.00" fill="#000000">symbolic/trigonometry.test</text>
</g>
<!-- symbolic/trigonometry.test&#45;&gt;unit_test -->
<g id="edge64" class="edge">
<title>symbolic/trigonometry.test&#45;&gt;unit_test</title>
<path fill="none" stroke="#000000" d="M2358.9,-519.9856C2386.182,-511.9477 2414.6349,-500.4319 2438,-484 2490.4966,-447.0809 2475.0238,-409.4758 2524,-368 2537.4182,-356.6367 2554.1209,-347.1215 2569.481,-339.7485"/>
<polygon fill="#000000" stroke="#000000" points="2571.2148,-342.8032 2578.8301,-335.4372 2568.2834,-336.4466 2571.2148,-342.8032"/>
</g>
<!-- symbolic/trigonometry.test&#45;&gt;symbolic/trigonometry -->
<g id="edge63" class="edge">
<title>symbolic/trigonometry.test&#45;&gt;symbolic/trigonometry</title>
<path fill="none" stroke="#000000" d="M2153.8297,-521.2101C2076.6412,-508.8873 1972.8508,-492.3176 1899.1691,-480.5547"/>
<polygon fill="#000000" stroke="#000000" points="1899.4048,-477.0481 1888.9781,-478.9278 1898.3012,-483.9606 1899.4048,-477.0481"/>
</g>
<!-- symbolic/rational.test -->
<g id="node32" class="node">
<title>symbolic/rational.test</title>
<polygon fill="none" stroke="#000000" points="2354.5,-412 2181.5,-412 2181.5,-376 2354.5,-376 2354.5,-412"/>
<text text-anchor="middle" x="2268" y="-390.3" font-family="Times,serif" font-size="14.00" fill="#000000">symbolic/rational.test</text>
</g>
<!-- symbolic/rational.test&#45;&gt;symbolic/rational -->
<g id="edge65" class="edge">
<title>symbolic/rational.test&#45;&gt;symbolic/rational</title>
<path fill="none" stroke="#000000" d="M2196.3239,-375.9804C2183.6039,-373.0911 2170.4464,-370.2997 2158,-368 2072.8278,-352.2627 1974.812,-339.6625 1905.4267,-331.6567"/>
<polygon fill="#000000" stroke="#000000" points="1905.7355,-328.1692 1895.4022,-330.509 1904.9392,-335.1238 1905.7355,-328.1692"/>
</g>
<!-- symbolic/rational.test&#45;&gt;unit_test -->
<g id="edge66" class="edge">
<title>symbolic/rational.test&#45;&gt;unit_test</title>
<path fill="none" stroke="#000000" d="M2354.7716,-378.0568C2374.2384,-374.6169 2394.8087,-371.0886 2414,-368 2475.6211,-358.0828 2492.8959,-364.8226 2553,-348 2560.0882,-346.0161 2567.4408,-343.4013 2574.4836,-340.5946"/>
<polygon fill="#000000" stroke="#000000" points="2575.9607,-343.7708 2583.8414,-336.6895 2573.2648,-337.3107 2575.9607,-343.7708"/>
</g>
<!-- geometry/slice.test -->
<g id="node33" class="node">
<title>geometry/slice.test</title>
<polygon fill="none" stroke="#000000" points="1041.5,-700 886.5,-700 886.5,-664 1041.5,-664 1041.5,-700"/>
<text text-anchor="middle" x="964" y="-678.3" font-family="Times,serif" font-size="14.00" fill="#000000">geometry/slice.test</text>
</g>
<!-- geometry/slice.test&#45;&gt;unit_test -->
<g id="edge68" class="edge">
<title>geometry/slice.test&#45;&gt;unit_test</title>
<path fill="none" stroke="#000000" d="M1041.7338,-678.8976C1326.0221,-667.1189 2299.2389,-622.8422 2425,-564 2519.0933,-519.9748 2579.4519,-402.7484 2602.9123,-349.2748"/>
<polygon fill="#000000" stroke="#000000" points="2606.1376,-350.634 2606.8633,-340.064 2599.7045,-347.8745 2606.1376,-350.634"/>
</g>
<!-- geometry/slice -->
<g id="node34" class="node">
<title>geometry/slice</title>
<ellipse fill="none" stroke="#000000" cx="963" cy="-610" rx="79.0865" ry="18"/>
<text text-anchor="middle" x="963" y="-606.3" font-family="Times,serif" font-size="14.00" fill="#000000">geometry/slice</text>
</g>
<!-- geometry/slice.test&#45;&gt;geometry/slice -->
<g id="edge67" class="edge">
<title>geometry/slice.test&#45;&gt;geometry/slice</title>
<path fill="none" stroke="#000000" d="M963.7477,-663.8314C963.6407,-656.131 963.5135,-646.9743 963.3947,-638.4166"/>
<polygon fill="#000000" stroke="#000000" points="966.8944,-638.3637 963.2557,-628.4133 959.8951,-638.4609 966.8944,-638.3637"/>
</g>
<!-- geometry/slice&#45;&gt;algebra/geometric -->
<g id="edge77" class="edge">
<title>geometry/slice&#45;&gt;algebra/geometric</title>
<path fill="none" stroke="#000000" d="M1008.9194,-595.2092C1023.2349,-591.0511 1039.161,-586.8825 1054,-584 1136.919,-567.8927 1159.8077,-578.6304 1243,-564 1256.265,-561.6672 1270.3385,-558.6008 1283.7264,-555.3951"/>
<polygon fill="#000000" stroke="#000000" points="1284.9256,-558.7049 1293.8058,-552.9263 1283.2602,-551.9059 1284.9256,-558.7049"/>
</g>
<!-- geometry/rotation.test -->
<g id="node35" class="node">
<title>geometry/rotation.test</title>
<polygon fill="none" stroke="#000000" points="806.5,-844 627.5,-844 627.5,-808 806.5,-808 806.5,-844"/>
<text text-anchor="middle" x="717" y="-822.3" font-family="Times,serif" font-size="14.00" fill="#000000">geometry/rotation.test</text>
</g>
<!-- geometry/rotation.test&#45;&gt;unit_test -->
<g id="edge71" class="edge">
<title>geometry/rotation.test&#45;&gt;unit_test</title>
<path fill="none" stroke="#000000" d="M806.6593,-809.1177C809.4686,-808.7214 812.2541,-808.3472 815,-808 914.3977,-795.4307 2614,-782.1893 2614,-682 2614,-682 2614,-682 2614,-466 2614,-425.876 2614,-379.4631 2614,-350.4177"/>
<polygon fill="#000000" stroke="#000000" points="2617.5001,-350.1853 2614,-340.1854 2610.5001,-350.1854 2617.5001,-350.1853"/>
</g>
<!-- geometry/rotation -->
<g id="node36" class="node">
<title>geometry/rotation</title>
<ellipse fill="none" stroke="#000000" cx="774" cy="-682" rx="94.7833" ry="18"/>
<text text-anchor="middle" x="774" y="-678.3" font-family="Times,serif" font-size="14.00" fill="#000000">geometry/rotation</text>
</g>
<!-- geometry/rotation.test&#45;&gt;geometry/rotation -->
<g id="edge69" class="edge">
<title>geometry/rotation.test&#45;&gt;geometry/rotation</title>
<path fill="none" stroke="#000000" d="M789.0726,-807.9192C821.5054,-798.1838 854.6243,-785.4325 864,-772 873.1577,-758.8799 871.8832,-749.9232 864,-736 855.8961,-721.687 842.3177,-710.7539 828.1329,-702.5966"/>
<polygon fill="#000000" stroke="#000000" points="829.7371,-699.4856 819.266,-697.8709 826.4447,-705.663 829.7371,-699.4856"/>
</g>
<!-- geometry/composition -->
<g id="node37" class="node">
<title>geometry/composition</title>
<ellipse fill="none" stroke="#000000" cx="741" cy="-754" rx="114.2798" ry="18"/>
<text text-anchor="middle" x="741" y="-750.3" font-family="Times,serif" font-size="14.00" fill="#000000">geometry/composition</text>
</g>
<!-- geometry/rotation.test&#45;&gt;geometry/composition -->
<g id="edge70" class="edge">
<title>geometry/rotation.test&#45;&gt;geometry/composition</title>
<path fill="none" stroke="#000000" d="M723.0562,-807.8314C725.6512,-800.0463 728.7424,-790.7729 731.6218,-782.1347"/>
<polygon fill="#000000" stroke="#000000" points="735.0203,-783.0069 734.8622,-772.4133 728.3795,-780.7933 735.0203,-783.0069"/>
</g>
<!-- geometry/rotation&#45;&gt;algebra/exponential -->
<g id="edge74" class="edge">
<title>geometry/rotation&#45;&gt;algebra/exponential</title>
<path fill="none" stroke="#000000" d="M793.6872,-664.316C802.9842,-655.8566 814.1717,-645.5193 824,-636 847.2525,-613.4784 845.3745,-597.0473 875,-584 933.8099,-558.0997 1389.2928,-572.4161 1453,-564 1468.1784,-561.9948 1484.3153,-558.8573 1499.4739,-555.446"/>
<polygon fill="#000000" stroke="#000000" points="1500.3229,-558.8421 1509.274,-553.1739 1498.7419,-552.0229 1500.3229,-558.8421"/>
</g>
<!-- geometry/rotation&#45;&gt;symbolic/trigonometry -->
<g id="edge73" class="edge">
<title>geometry/rotation&#45;&gt;symbolic/trigonometry</title>
<path fill="none" stroke="#000000" d="M840.3893,-669.1203C852.8448,-667.0993 865.7882,-665.264 878,-664 966.6916,-654.8199 1600.9172,-677.1871 1680,-636 1739.2057,-605.165 1778.601,-533.1687 1796.6562,-493.4763"/>
<polygon fill="#000000" stroke="#000000" points="1799.9474,-494.6873 1800.7858,-484.1257 1793.5441,-491.8593 1799.9474,-494.6873"/>
</g>
<!-- geometry/rotation&#45;&gt;algebra/reverse -->
<g id="edge75" class="edge">
<title>geometry/rotation&#45;&gt;algebra/reverse</title>
<path fill="none" stroke="#000000" d="M779.1888,-663.7816C786.6666,-641.105 802.7743,-603.0463 831,-584 867.029,-559.6881 976.809,-547.9433 1057.5588,-542.4661"/>
<polygon fill="#000000" stroke="#000000" points="1058.0031,-545.9446 1067.7524,-541.7972 1057.5447,-538.9596 1058.0031,-545.9446"/>
</g>
<!-- geometry/rotation&#45;&gt;geometry/slice -->
<g id="edge72" class="edge">
<title>geometry/rotation&#45;&gt;geometry/slice</title>
<path fill="none" stroke="#000000" d="M816.4153,-665.8418C844.9934,-654.9549 882.8134,-640.5473 912.8792,-629.0936"/>
<polygon fill="#000000" stroke="#000000" points="914.248,-632.3176 922.3468,-625.4869 911.756,-625.7762 914.248,-632.3176"/>
</g>
<!-- geometry/composition&#45;&gt;group/operation -->
<g id="edge79" class="edge">
<title>geometry/composition&#45;&gt;group/operation</title>
<path fill="none" stroke="#000000" d="M641.8343,-744.9397C439.9186,-725.1522 0,-674.6253 0,-610 0,-610 0,-610 0,-394 0,-330.8123 46.9471,-325.1678 103,-296 128.2918,-282.8391 195.0546,-270.2011 249.8417,-261.5136"/>
<polygon fill="#000000" stroke="#000000" points="250.5801,-264.9407 259.9196,-259.9382 249.4989,-258.0247 250.5801,-264.9407"/>
</g>
<!-- geometry/composition&#45;&gt;geometry/rotation -->
<g id="edge78" class="edge">
<title>geometry/composition&#45;&gt;geometry/rotation</title>
<path fill="none" stroke="#000000" d="M749.3273,-735.8314C752.973,-727.8771 757.3309,-718.369 761.3627,-709.5723"/>
<polygon fill="#000000" stroke="#000000" points="764.5757,-710.9622 765.5606,-700.4133 758.2123,-708.0456 764.5757,-710.9622"/>
</g>
<!-- geometry/translation -->
<g id="node38" class="node">
<title>geometry/translation</title>
<ellipse fill="none" stroke="#000000" cx="933" cy="-826" rx="108.5808" ry="18"/>
<text text-anchor="middle" x="933" y="-822.3" font-family="Times,serif" font-size="14.00" fill="#000000">geometry/translation</text>
</g>
<!-- geometry/translation&#45;&gt;vector/basis -->
<g id="edge76" class="edge">
<title>geometry/translation&#45;&gt;vector/basis</title>
<path fill="none" stroke="#000000" d="M1038.3958,-821.603C1384.1658,-806.4901 2462,-753.6349 2462,-682 2462,-682 2462,-682 2462,-538 2462,-480.0515 2428.4345,-464.6709 2376,-440 2341.5978,-423.8135 1184.9268,-401.2714 870.3148,-395.4282"/>
<polygon fill="#000000" stroke="#000000" points="869.9867,-391.9216 859.9235,-395.2356 869.8569,-398.9204 869.9867,-391.9216"/>
</g>
</g>
</svg>
